<svg width="412" height="224" viewBox="0 0 412 224" fill="none" xmlns="http://www.w3.org/2000/svg">
<rect x="6.5" y="6.5" width="399" height="211" fill="#4E2D18"/>
<rect x="6.5" y="6.5" width="399" height="211" stroke="#8A6340" stroke-width="13"/>
<mask id="path-2-inside-1_1250_37" fill="white">
<path d="M225.039 82.7266H211.055V79.9141C211.055 77.5182 210.911 76.0078 210.625 75.3828C210.365 74.7318 209.688 74.4062 208.594 74.4062C207.708 74.4062 207.044 74.7057 206.602 75.3047C206.159 75.8776 205.938 76.75 205.938 77.9219C205.938 79.5104 206.042 80.6823 206.25 81.4375C206.484 82.1667 207.148 82.974 208.242 83.8594C209.362 84.7448 211.641 86.0339 215.078 87.7266C219.661 89.9661 222.669 92.0755 224.102 94.0547C225.534 96.0339 226.25 98.9115 226.25 102.688C226.25 106.906 225.703 110.096 224.609 112.258C223.516 114.393 221.68 116.047 219.102 117.219C216.549 118.365 213.464 118.938 209.844 118.938C205.833 118.938 202.396 118.312 199.531 117.062C196.693 115.812 194.74 114.12 193.672 111.984C192.604 109.849 192.07 106.62 192.07 102.297V99.7969H206.055V103.078C206.055 105.865 206.224 107.674 206.562 108.508C206.927 109.341 207.63 109.758 208.672 109.758C209.792 109.758 210.573 109.484 211.016 108.938C211.458 108.365 211.68 107.18 211.68 105.383C211.68 102.909 211.393 101.359 210.82 100.734C210.221 100.109 207.161 98.2604 201.641 95.1875C197.005 92.5833 194.18 90.2266 193.164 88.1172C192.148 85.9818 191.641 83.4557 191.641 80.5391C191.641 76.3984 192.188 73.3516 193.281 71.3984C194.375 69.4193 196.224 67.8958 198.828 66.8281C201.458 65.7604 204.505 65.2266 207.969 65.2266C211.406 65.2266 214.323 65.6693 216.719 66.5547C219.141 67.4141 220.99 68.5599 222.266 69.9922C223.568 71.4245 224.349 72.7526 224.609 73.9766C224.896 75.2005 225.039 77.1146 225.039 79.7188V82.7266Z"/>
</mask>
<path d="M225.039 82.7266H211.055V79.9141C211.055 77.5182 210.911 76.0078 210.625 75.3828C210.365 74.7318 209.688 74.4062 208.594 74.4062C207.708 74.4062 207.044 74.7057 206.602 75.3047C206.159 75.8776 205.938 76.75 205.938 77.9219C205.938 79.5104 206.042 80.6823 206.25 81.4375C206.484 82.1667 207.148 82.974 208.242 83.8594C209.362 84.7448 211.641 86.0339 215.078 87.7266C219.661 89.9661 222.669 92.0755 224.102 94.0547C225.534 96.0339 226.25 98.9115 226.25 102.688C226.25 106.906 225.703 110.096 224.609 112.258C223.516 114.393 221.68 116.047 219.102 117.219C216.549 118.365 213.464 118.938 209.844 118.938C205.833 118.938 202.396 118.312 199.531 117.062C196.693 115.812 194.74 114.12 193.672 111.984C192.604 109.849 192.07 106.62 192.07 102.297V99.7969H206.055V103.078C206.055 105.865 206.224 107.674 206.562 108.508C206.927 109.341 207.63 109.758 208.672 109.758C209.792 109.758 210.573 109.484 211.016 108.938C211.458 108.365 211.68 107.18 211.68 105.383C211.68 102.909 211.393 101.359 210.82 100.734C210.221 100.109 207.161 98.2604 201.641 95.1875C197.005 92.5833 194.18 90.2266 193.164 88.1172C192.148 85.9818 191.641 83.4557 191.641 80.5391C191.641 76.3984 192.188 73.3516 193.281 71.3984C194.375 69.4193 196.224 67.8958 198.828 66.8281C201.458 65.7604 204.505 65.2266 207.969 65.2266C211.406 65.2266 214.323 65.6693 216.719 66.5547C219.141 67.4141 220.99 68.5599 222.266 69.9922C223.568 71.4245 224.349 72.7526 224.609 73.9766C224.896 75.2005 225.039 77.1146 225.039 79.7188V82.7266Z" fill="#102821"/>
<path d="M225.039 82.7266V83.7266H226.039V82.7266H225.039ZM211.055 82.7266H210.055V83.7266H211.055V82.7266ZM210.625 75.3828L209.697 75.7542L209.706 75.7771L209.716 75.7995L210.625 75.3828ZM206.602 75.3047L207.393 75.9161L207.399 75.9077L207.406 75.8991L206.602 75.3047ZM206.25 81.4375L205.286 81.7034L205.292 81.7236L205.298 81.7435L206.25 81.4375ZM208.242 83.8594L207.613 84.6367L207.622 84.6438L208.242 83.8594ZM215.078 87.7266L214.636 88.6237L214.639 88.625L215.078 87.7266ZM224.609 112.258L225.499 112.714L225.502 112.709L224.609 112.258ZM219.102 117.219L219.511 118.131L219.515 118.129L219.102 117.219ZM199.531 117.062L199.128 117.978L199.131 117.979L199.531 117.062ZM192.07 99.7969V98.7969H191.07V99.7969H192.07ZM206.055 99.7969H207.055V98.7969H206.055V99.7969ZM206.562 108.508L205.636 108.884L205.641 108.896L205.646 108.909L206.562 108.508ZM211.016 108.938L211.793 109.567L211.8 109.558L211.807 109.549L211.016 108.938ZM210.82 100.734L211.557 100.059L211.55 100.05L211.542 100.042L210.82 100.734ZM201.641 95.1875L201.151 96.0593L201.154 96.0613L201.641 95.1875ZM193.164 88.1172L192.261 88.5467L192.263 88.551L193.164 88.1172ZM193.281 71.3984L194.154 71.887L194.156 71.8821L193.281 71.3984ZM198.828 66.8281L198.452 65.9016L198.449 65.9029L198.828 66.8281ZM216.719 66.5547L216.372 67.4928L216.384 67.4971L216.719 66.5547ZM222.266 69.9922L221.519 70.6574L221.526 70.6649L222.266 69.9922ZM224.609 73.9766L223.631 74.1847L223.633 74.1946L223.636 74.2044L224.609 73.9766ZM225.039 81.7266H211.055V83.7266H225.039V81.7266ZM212.055 82.7266V79.9141H210.055V82.7266H212.055ZM212.055 79.9141C212.055 78.7004 212.019 77.6891 211.943 76.89C211.87 76.1249 211.753 75.4439 211.534 74.9662L209.716 75.7995C209.783 75.9467 209.881 76.3334 209.952 77.0788C210.019 77.7901 210.055 78.7319 210.055 79.9141H212.055ZM211.553 75.0114C211.063 73.7856 209.835 73.4062 208.594 73.4062V75.4062C209.54 75.4062 209.666 75.678 209.697 75.7542L211.553 75.0114ZM208.594 73.4062C207.459 73.4062 206.466 73.8063 205.797 74.7103L207.406 75.8991C207.623 75.6052 207.958 75.4062 208.594 75.4062V73.4062ZM205.81 74.6932C205.171 75.5203 204.938 76.6553 204.938 77.9219H206.938C206.938 76.8447 207.147 76.2349 207.393 75.9161L205.81 74.6932ZM204.938 77.9219C204.938 79.528 205.04 80.8121 205.286 81.7034L207.214 81.1716C207.043 80.5524 206.938 79.4928 206.938 77.9219H204.938ZM205.298 81.7435C205.624 82.7568 206.477 83.7168 207.613 84.6366L208.871 83.0821C207.82 82.2311 207.345 81.5766 207.202 81.1315L205.298 81.7435ZM207.622 84.6438C208.836 85.6041 211.207 86.9351 214.636 88.6237L215.52 86.8294C212.074 85.1326 209.888 83.8855 208.862 83.075L207.622 84.6438ZM214.639 88.625C219.202 90.8548 222.014 92.8752 223.291 94.641L224.912 93.4684C223.325 91.2758 220.121 89.0775 215.517 86.8281L214.639 88.625ZM223.291 94.641C224.549 96.3793 225.25 99.0145 225.25 102.688H227.25C227.25 98.8084 226.518 95.6884 224.912 93.4684L223.291 94.641ZM225.25 102.688C225.25 106.85 224.706 109.853 223.717 111.806L225.502 112.709C226.701 110.34 227.25 106.963 227.25 102.688H225.25ZM223.719 111.802C222.746 113.702 221.099 115.212 218.688 116.308L219.515 118.129C222.26 116.881 224.285 115.085 225.499 112.714L223.719 111.802ZM218.692 116.306C216.301 117.38 213.362 117.938 209.844 117.938V119.938C213.565 119.938 216.798 119.349 219.511 118.131L218.692 116.306ZM209.844 117.938C205.934 117.938 202.639 117.328 199.931 116.146L199.131 117.979C202.152 119.297 205.733 119.938 209.844 119.938V117.938ZM199.934 116.147C197.244 114.963 195.502 113.409 194.566 111.537L192.777 112.432C193.977 114.831 196.141 116.662 199.128 117.978L199.934 116.147ZM194.566 111.537C193.604 109.612 193.07 106.571 193.07 102.297H191.07C191.07 106.669 191.605 110.086 192.777 112.432L194.566 111.537ZM193.07 102.297V99.7969H191.07V102.297H193.07ZM192.07 100.797H206.055V98.7969H192.07V100.797ZM205.055 99.7969V103.078H207.055V99.7969H205.055ZM205.055 103.078C205.055 104.488 205.097 105.671 205.186 106.619C205.272 107.543 205.409 108.325 205.636 108.884L207.489 108.131C207.377 107.857 207.26 107.318 207.177 106.432C207.097 105.57 207.055 104.455 207.055 103.078H205.055ZM205.646 108.909C205.903 109.495 206.301 109.978 206.853 110.306C207.396 110.627 208.02 110.758 208.672 110.758V108.758C208.282 108.758 208.033 108.68 207.873 108.585C207.722 108.495 207.587 108.354 207.479 108.107L205.646 108.909ZM208.672 110.758C209.915 110.758 211.071 110.458 211.793 109.567L210.238 108.308C210.075 108.51 209.668 108.758 208.672 108.758V110.758ZM211.807 109.549C212.169 109.08 212.374 108.46 212.497 107.803C212.623 107.128 212.68 106.316 212.68 105.383H210.68C210.68 106.246 210.626 106.925 210.531 107.436C210.432 107.963 210.305 108.222 210.224 108.326L211.807 109.549ZM212.68 105.383C212.68 104.115 212.607 103.042 212.448 102.183C212.296 101.359 212.039 100.584 211.557 100.059L210.083 101.41C210.174 101.51 210.347 101.822 210.482 102.547C210.609 103.238 210.68 104.177 210.68 105.383H212.68ZM211.542 100.042C211.31 99.8 210.923 99.5141 210.47 99.2077C209.992 98.885 209.365 98.4894 208.593 98.023C207.048 97.0895 204.891 95.8523 202.127 94.3137L201.154 96.0613C203.911 97.5956 206.044 98.8194 207.559 99.7348C208.317 100.193 208.912 100.569 209.35 100.865C209.811 101.177 210.031 101.356 210.098 101.426L211.542 100.042ZM202.13 94.3157C199.845 93.0316 198.036 91.825 196.685 90.6989C195.326 89.5652 194.486 88.5568 194.065 87.6834L192.263 88.551C192.858 89.787 193.938 91.0116 195.404 92.2347C196.88 93.4653 198.801 94.7393 201.151 96.0593L202.13 94.3157ZM194.067 87.6877C193.128 85.714 192.641 83.3411 192.641 80.5391H190.641C190.641 83.5704 191.168 86.2495 192.261 88.5467L194.067 87.6877ZM192.641 80.5391C192.641 76.4467 193.188 73.6115 194.154 71.887L192.409 70.9098C191.187 73.0916 190.641 76.3501 190.641 80.5391H192.641ZM194.156 71.8821C195.115 70.1472 196.761 68.7563 199.207 67.7534L198.449 65.9029C195.687 67.0353 193.635 68.6914 192.406 70.9148L194.156 71.8821ZM199.204 67.7547C201.692 66.7449 204.607 66.2266 207.969 66.2266V64.2266C204.404 64.2266 201.225 64.776 198.452 65.9016L199.204 67.7547ZM207.969 66.2266C211.326 66.2266 214.118 66.6597 216.372 67.4927L217.065 65.6167C214.528 64.6788 211.486 64.2266 207.969 64.2266V66.2266ZM216.384 67.4971C218.699 68.3186 220.386 69.3862 221.519 70.6574L223.012 69.327C221.593 67.7336 219.582 66.5095 217.053 65.6123L216.384 67.4971ZM221.526 70.6649C222.768 72.0317 223.423 73.2038 223.631 74.1847L225.587 73.7685C225.275 72.3014 224.367 70.8172 223.006 69.3195L221.526 70.6649ZM223.636 74.2044C223.894 75.3103 224.039 77.1279 224.039 79.7188H226.039C226.039 77.1013 225.897 75.0908 225.583 73.7487L223.636 74.2044ZM224.039 79.7188V82.7266H226.039V79.7188H224.039Z" fill="#102821" mask="url(#path-2-inside-1_1250_37)"/>
<path d="M249.57 112.39C250.53 113.86 249.96 115.42 249.12 116.53C248.43 117.43 247.56 118.12 246.36 118.3C246.09 118.33 245.85 118.3 245.61 118.3C244.26 118.45 242.28 117.4 241.92 115.93C241.56 114.55 241.92 113.41 242.79 112.36C243.57 111.46 244.47 110.77 245.67 110.68C246.9 110.56 248.73 111.1 249.57 112.39Z" fill="#102821"/>
<mask id="path-5-inside-2_1250_37" fill="white">
<path d="M233.039 82.7266H219.055V79.9141C219.055 77.5182 218.911 76.0078 218.625 75.3828C218.365 74.7318 217.688 74.4062 216.594 74.4062C215.708 74.4062 215.044 74.7057 214.602 75.3047C214.159 75.8776 213.938 76.75 213.938 77.9219C213.938 79.5104 214.042 80.6823 214.25 81.4375C214.484 82.1667 215.148 82.974 216.242 83.8594C217.362 84.7448 219.641 86.0339 223.078 87.7266C227.661 89.9661 230.669 92.0755 232.102 94.0547C233.534 96.0339 234.25 98.9115 234.25 102.688C234.25 106.906 233.703 110.096 232.609 112.258C231.516 114.393 229.68 116.047 227.102 117.219C224.549 118.365 221.464 118.938 217.844 118.938C213.833 118.938 210.396 118.312 207.531 117.062C204.693 115.812 202.74 114.12 201.672 111.984C200.604 109.849 200.07 106.62 200.07 102.297V99.7969H214.055V103.078C214.055 105.865 214.224 107.674 214.562 108.508C214.927 109.341 215.63 109.758 216.672 109.758C217.792 109.758 218.573 109.484 219.016 108.938C219.458 108.365 219.68 107.18 219.68 105.383C219.68 102.909 219.393 101.359 218.82 100.734C218.221 100.109 215.161 98.2604 209.641 95.1875C205.005 92.5833 202.18 90.2266 201.164 88.1172C200.148 85.9818 199.641 83.4557 199.641 80.5391C199.641 76.3984 200.188 73.3516 201.281 71.3984C202.375 69.4193 204.224 67.8958 206.828 66.8281C209.458 65.7604 212.505 65.2266 215.969 65.2266C219.406 65.2266 222.323 65.6693 224.719 66.5547C227.141 67.4141 228.99 68.5599 230.266 69.9922C231.568 71.4245 232.349 72.7526 232.609 73.9766C232.896 75.2005 233.039 77.1146 233.039 79.7188V82.7266Z"/>
</mask>
<path d="M233.039 82.7266H219.055V79.9141C219.055 77.5182 218.911 76.0078 218.625 75.3828C218.365 74.7318 217.688 74.4062 216.594 74.4062C215.708 74.4062 215.044 74.7057 214.602 75.3047C214.159 75.8776 213.938 76.75 213.938 77.9219C213.938 79.5104 214.042 80.6823 214.25 81.4375C214.484 82.1667 215.148 82.974 216.242 83.8594C217.362 84.7448 219.641 86.0339 223.078 87.7266C227.661 89.9661 230.669 92.0755 232.102 94.0547C233.534 96.0339 234.25 98.9115 234.25 102.688C234.25 106.906 233.703 110.096 232.609 112.258C231.516 114.393 229.68 116.047 227.102 117.219C224.549 118.365 221.464 118.938 217.844 118.938C213.833 118.938 210.396 118.312 207.531 117.062C204.693 115.812 202.74 114.12 201.672 111.984C200.604 109.849 200.07 106.62 200.07 102.297V99.7969H214.055V103.078C214.055 105.865 214.224 107.674 214.562 108.508C214.927 109.341 215.63 109.758 216.672 109.758C217.792 109.758 218.573 109.484 219.016 108.938C219.458 108.365 219.68 107.18 219.68 105.383C219.68 102.909 219.393 101.359 218.82 100.734C218.221 100.109 215.161 98.2604 209.641 95.1875C205.005 92.5833 202.18 90.2266 201.164 88.1172C200.148 85.9818 199.641 83.4557 199.641 80.5391C199.641 76.3984 200.188 73.3516 201.281 71.3984C202.375 69.4193 204.224 67.8958 206.828 66.8281C209.458 65.7604 212.505 65.2266 215.969 65.2266C219.406 65.2266 222.323 65.6693 224.719 66.5547C227.141 67.4141 228.99 68.5599 230.266 69.9922C231.568 71.4245 232.349 72.7526 232.609 73.9766C232.896 75.2005 233.039 77.1146 233.039 79.7188V82.7266Z" fill="#B88457"/>
<path d="M233.039 82.7266V83.7266H234.039V82.7266H233.039ZM219.055 82.7266H218.055V83.7266H219.055V82.7266ZM218.625 75.3828L217.697 75.7542L217.706 75.7771L217.716 75.7995L218.625 75.3828ZM214.602 75.3047L215.393 75.9161L215.399 75.9077L215.406 75.8991L214.602 75.3047ZM214.25 81.4375L213.286 81.7034L213.292 81.7236L213.298 81.7435L214.25 81.4375ZM216.242 83.8594L215.613 84.6367L215.622 84.6438L216.242 83.8594ZM223.078 87.7266L222.636 88.6237L222.639 88.625L223.078 87.7266ZM232.609 112.258L233.499 112.714L233.502 112.709L232.609 112.258ZM227.102 117.219L227.511 118.131L227.515 118.129L227.102 117.219ZM207.531 117.062L207.128 117.978L207.131 117.979L207.531 117.062ZM200.07 99.7969V98.7969H199.07V99.7969H200.07ZM214.055 99.7969H215.055V98.7969H214.055V99.7969ZM214.562 108.508L213.636 108.884L213.641 108.896L213.646 108.909L214.562 108.508ZM219.016 108.938L219.793 109.567L219.8 109.558L219.807 109.549L219.016 108.938ZM218.82 100.734L219.557 100.059L219.55 100.05L219.542 100.042L218.82 100.734ZM209.641 95.1875L209.151 96.0593L209.154 96.0613L209.641 95.1875ZM201.164 88.1172L200.261 88.5467L200.263 88.551L201.164 88.1172ZM201.281 71.3984L202.154 71.887L202.156 71.8821L201.281 71.3984ZM206.828 66.8281L206.452 65.9016L206.449 65.9029L206.828 66.8281ZM224.719 66.5547L224.372 67.4928L224.384 67.4971L224.719 66.5547ZM230.266 69.9922L229.519 70.6574L229.526 70.6649L230.266 69.9922ZM232.609 73.9766L231.631 74.1847L231.633 74.1946L231.636 74.2044L232.609 73.9766ZM233.039 81.7266H219.055V83.7266H233.039V81.7266ZM220.055 82.7266V79.9141H218.055V82.7266H220.055ZM220.055 79.9141C220.055 78.7004 220.019 77.6891 219.943 76.89C219.87 76.1249 219.753 75.4439 219.534 74.9662L217.716 75.7995C217.783 75.9467 217.881 76.3334 217.952 77.0788C218.019 77.7901 218.055 78.7319 218.055 79.9141H220.055ZM219.553 75.0114C219.063 73.7856 217.835 73.4062 216.594 73.4062V75.4062C217.54 75.4062 217.666 75.678 217.697 75.7542L219.553 75.0114ZM216.594 73.4062C215.459 73.4062 214.466 73.8063 213.797 74.7103L215.406 75.8991C215.623 75.6052 215.958 75.4062 216.594 75.4062V73.4062ZM213.81 74.6932C213.171 75.5203 212.938 76.6553 212.938 77.9219H214.938C214.938 76.8447 215.147 76.2349 215.393 75.9161L213.81 74.6932ZM212.938 77.9219C212.938 79.528 213.04 80.8121 213.286 81.7034L215.214 81.1716C215.043 80.5524 214.938 79.4928 214.938 77.9219H212.938ZM213.298 81.7435C213.624 82.7568 214.477 83.7168 215.613 84.6366L216.871 83.0821C215.82 82.2311 215.345 81.5766 215.202 81.1315L213.298 81.7435ZM215.622 84.6438C216.836 85.6041 219.207 86.9351 222.636 88.6237L223.52 86.8294C220.074 85.1326 217.888 83.8855 216.862 83.075L215.622 84.6438ZM222.639 88.625C227.202 90.8548 230.014 92.8752 231.291 94.641L232.912 93.4684C231.325 91.2758 228.121 89.0775 223.517 86.8281L222.639 88.625ZM231.291 94.641C232.549 96.3793 233.25 99.0145 233.25 102.688H235.25C235.25 98.8084 234.518 95.6884 232.912 93.4684L231.291 94.641ZM233.25 102.688C233.25 106.85 232.706 109.853 231.717 111.806L233.502 112.709C234.701 110.34 235.25 106.963 235.25 102.688H233.25ZM231.719 111.802C230.746 113.702 229.099 115.212 226.688 116.308L227.515 118.129C230.26 116.881 232.285 115.085 233.499 112.714L231.719 111.802ZM226.692 116.306C224.301 117.38 221.362 117.938 217.844 117.938V119.938C221.565 119.938 224.798 119.349 227.511 118.131L226.692 116.306ZM217.844 117.938C213.934 117.938 210.639 117.328 207.931 116.146L207.131 117.979C210.152 119.297 213.733 119.938 217.844 119.938V117.938ZM207.934 116.147C205.244 114.963 203.502 113.409 202.566 111.537L200.777 112.432C201.977 114.831 204.141 116.662 207.128 117.978L207.934 116.147ZM202.566 111.537C201.604 109.612 201.07 106.571 201.07 102.297H199.07C199.07 106.669 199.605 110.086 200.777 112.432L202.566 111.537ZM201.07 102.297V99.7969H199.07V102.297H201.07ZM200.07 100.797H214.055V98.7969H200.07V100.797ZM213.055 99.7969V103.078H215.055V99.7969H213.055ZM213.055 103.078C213.055 104.488 213.097 105.671 213.186 106.619C213.272 107.543 213.409 108.325 213.636 108.884L215.489 108.131C215.377 107.857 215.26 107.318 215.177 106.432C215.097 105.57 215.055 104.455 215.055 103.078H213.055ZM213.646 108.909C213.903 109.495 214.301 109.978 214.853 110.306C215.396 110.627 216.02 110.758 216.672 110.758V108.758C216.282 108.758 216.033 108.68 215.873 108.585C215.722 108.495 215.587 108.354 215.479 108.107L213.646 108.909ZM216.672 110.758C217.915 110.758 219.071 110.458 219.793 109.567L218.238 108.308C218.075 108.51 217.668 108.758 216.672 108.758V110.758ZM219.807 109.549C220.169 109.08 220.374 108.46 220.497 107.803C220.623 107.128 220.68 106.316 220.68 105.383H218.68C218.68 106.246 218.626 106.925 218.531 107.436C218.432 107.963 218.305 108.222 218.224 108.326L219.807 109.549ZM220.68 105.383C220.68 104.115 220.607 103.042 220.448 102.183C220.296 101.359 220.039 100.584 219.557 100.059L218.083 101.41C218.174 101.51 218.347 101.822 218.482 102.547C218.609 103.238 218.68 104.177 218.68 105.383H220.68ZM219.542 100.042C219.31 99.8 218.923 99.5141 218.47 99.2077C217.992 98.885 217.365 98.4894 216.593 98.023C215.048 97.0895 212.891 95.8523 210.127 94.3137L209.154 96.0613C211.911 97.5956 214.044 98.8194 215.559 99.7348C216.317 100.193 216.912 100.569 217.35 100.865C217.811 101.177 218.031 101.356 218.098 101.426L219.542 100.042ZM210.13 94.3157C207.845 93.0316 206.036 91.825 204.685 90.6989C203.326 89.5652 202.486 88.5568 202.065 87.6834L200.263 88.551C200.858 89.787 201.938 91.0116 203.404 92.2347C204.88 93.4653 206.801 94.7393 209.151 96.0593L210.13 94.3157ZM202.067 87.6877C201.128 85.714 200.641 83.3411 200.641 80.5391H198.641C198.641 83.5704 199.168 86.2495 200.261 88.5467L202.067 87.6877ZM200.641 80.5391C200.641 76.4467 201.188 73.6115 202.154 71.887L200.409 70.9098C199.187 73.0916 198.641 76.3501 198.641 80.5391H200.641ZM202.156 71.8821C203.115 70.1472 204.761 68.7563 207.207 67.7534L206.449 65.9029C203.687 67.0353 201.635 68.6914 200.406 70.9148L202.156 71.8821ZM207.204 67.7547C209.692 66.7449 212.607 66.2266 215.969 66.2266V64.2266C212.404 64.2266 209.225 64.776 206.452 65.9016L207.204 67.7547ZM215.969 66.2266C219.326 66.2266 222.118 66.6597 224.372 67.4927L225.065 65.6167C222.528 64.6788 219.486 64.2266 215.969 64.2266V66.2266ZM224.384 67.4971C226.699 68.3186 228.386 69.3862 229.519 70.6574L231.012 69.327C229.593 67.7336 227.582 66.5095 225.053 65.6123L224.384 67.4971ZM229.526 70.6649C230.768 72.0317 231.423 73.2038 231.631 74.1847L233.587 73.7685C233.275 72.3014 232.367 70.8172 231.006 69.3195L229.526 70.6649ZM231.636 74.2044C231.894 75.3103 232.039 77.1279 232.039 79.7188H234.039C234.039 77.1013 233.897 75.0908 233.583 73.7487L231.636 74.2044ZM232.039 79.7188V82.7266H234.039V79.7188H232.039Z" fill="#102821" mask="url(#path-5-inside-2_1250_37)"/>
<path d="M54 95L172 95" stroke="#102821" stroke-width="0.5" stroke-linecap="round"/>
<path d="M253 95L359 95" stroke="#102821" stroke-width="0.5" stroke-linecap="round"/>
</svg>
