<svg width="412" height="224" viewBox="0 0 412 224" fill="none" xmlns="http://www.w3.org/2000/svg">
<mask id="path-1-inside-1_1250_37" fill="white">
<path d="M225.039 82.7266H211.055V79.9141C211.055 77.5182 210.911 76.0078 210.625 75.3828C210.365 74.7318 209.688 74.4062 208.594 74.4062C207.708 74.4062 207.044 74.7057 206.602 75.3047C206.159 75.8776 205.938 76.75 205.938 77.9219C205.938 79.5104 206.042 80.6823 206.25 81.4375C206.484 82.1667 207.148 82.974 208.242 83.8594C209.362 84.7448 211.641 86.0339 215.078 87.7266C219.661 89.9661 222.669 92.0755 224.102 94.0547C225.534 96.0339 226.25 98.9115 226.25 102.688C226.25 106.906 225.703 110.096 224.609 112.258C223.516 114.393 221.68 116.047 219.102 117.219C216.549 118.365 213.464 118.938 209.844 118.938C205.833 118.938 202.396 118.312 199.531 117.062C196.693 115.812 194.74 114.12 193.672 111.984C192.604 109.849 192.07 106.62 192.07 102.297V99.7969H206.055V103.078C206.055 105.865 206.224 107.674 206.562 108.508C206.927 109.341 207.63 109.758 208.672 109.758C209.792 109.758 210.573 109.484 211.016 108.938C211.458 108.365 211.68 107.18 211.68 105.383C211.68 102.909 211.393 101.359 210.82 100.734C210.221 100.109 207.161 98.2604 201.641 95.1875C197.005 92.5833 194.18 90.2266 193.164 88.1172C192.148 85.9818 191.641 83.4557 191.641 80.5391C191.641 76.3984 192.188 73.3516 193.281 71.3984C194.375 69.4193 196.224 67.8958 198.828 66.8281C201.458 65.7604 204.505 65.2266 207.969 65.2266C211.406 65.2266 214.323 65.6693 216.719 66.5547C219.141 67.4141 220.99 68.5599 222.266 69.9922C223.568 71.4245 224.349 72.7526 224.609 73.9766C224.896 75.2005 225.039 77.1146 225.039 79.7188V82.7266Z"/>
</mask>
<path d="M225.039 82.7266H211.055V79.9141C211.055 77.5182 210.911 76.0078 210.625 75.3828C210.365 74.7318 209.688 74.4062 208.594 74.4062C207.708 74.4062 207.044 74.7057 206.602 75.3047C206.159 75.8776 205.938 76.75 205.938 77.9219C205.938 79.5104 206.042 80.6823 206.25 81.4375C206.484 82.1667 207.148 82.974 208.242 83.8594C209.362 84.7448 211.641 86.0339 215.078 87.7266C219.661 89.9661 222.669 92.0755 224.102 94.0547C225.534 96.0339 226.25 98.9115 226.25 102.688C226.25 106.906 225.703 110.096 224.609 112.258C223.516 114.393 221.68 116.047 219.102 117.219C216.549 118.365 213.464 118.938 209.844 118.938C205.833 118.938 202.396 118.312 199.531 117.062C196.693 115.812 194.74 114.12 193.672 111.984C192.604 109.849 192.07 106.62 192.07 102.297V99.7969H206.055V103.078C206.055 105.865 206.224 107.674 206.562 108.508C206.927 109.341 207.63 109.758 208.672 109.758C209.792 109.758 210.573 109.484 211.016 108.938C211.458 108.365 211.68 107.18 211.68 105.383C211.68 102.909 211.393 101.359 210.82 100.734C210.221 100.109 207.161 98.2604 201.641 95.1875C197.005 92.5833 194.18 90.2266 193.164 88.1172C192.148 85.9818 191.641 83.4557 191.641 80.5391C191.641 76.3984 192.188 73.3516 193.281 71.3984C194.375 69.4193 196.224 67.8958 198.828 66.8281C201.458 65.7604 204.505 65.2266 207.969 65.2266C211.406 65.2266 214.323 65.6693 216.719 66.5547C219.141 67.4141 220.99 68.5599 222.266 69.9922C223.568 71.4245 224.349 72.7526 224.609 73.9766C224.896 75.2005 225.039 77.1146 225.039 79.7188V82.7266Z" fill="#102821"/>
<path d="M225.039 82.7266V83.7266H226.039V82.7266H225.039ZM211.055 82.7266H210.055V83.7266H211.055V82.7266ZM210.625 75.3828L209.697 75.7542L209.706 75.7771L209.716 75.7995L210.625 75.3828ZM206.602 75.3047L207.393 75.9161L207.399 75.9077L207.406 75.8991L206.602 75.3047ZM206.25 81.4375L205.286 81.7034L205.292 81.7236L205.298 81.7435L206.25 81.4375ZM208.242 83.8594L207.613 84.6367L207.622 84.6438L208.242 83.8594ZM215.078 87.7266L214.636 88.6237L214.639 88.625L215.078 87.7266ZM224.609 112.258L225.499 112.714L225.502 112.709L224.609 112.258ZM219.102 117.219L219.511 118.131L219.515 118.129L219.102 117.219ZM199.531 117.062L199.128 117.978L199.131 117.979L199.531 117.062ZM192.07 99.7969V98.7969H191.07V99.7969H192.07ZM206.055 99.7969H207.055V98.7969H206.055V99.7969ZM206.562 108.508L205.636 108.884L205.641 108.896L205.646 108.909L206.562 108.508ZM211.016 108.938L211.793 109.567L211.8 109.558L211.807 109.549L211.016 108.938ZM210.82 100.734L211.557 100.059L211.55 100.05L211.542 100.042L210.82 100.734ZM201.641 95.1875L201.151 96.0593L201.154 96.0613L201.641 95.1875ZM193.164 88.1172L192.261 88.5467L192.263 88.551L193.164 88.1172ZM193.281 71.3984L194.154 71.887L194.156 71.8821L193.281 71.3984ZM198.828 66.8281L198.452 65.9016L198.449 65.9029L198.828 66.8281ZM216.719 66.5547L216.372 67.4928L216.384 67.4971L216.719 66.5547ZM222.266 69.9922L221.519 70.6574L221.526 70.6649L222.266 69.9922ZM224.609 73.9766L223.631 74.1847L223.633 74.1946L223.636 74.2044L224.609 73.9766ZM225.039 81.7266H211.055V83.7266H225.039V81.7266ZM212.055 82.7266V79.9141H210.055V82.7266H212.055ZM212.055 79.9141C212.055 78.7004 212.019 77.6891 211.943 76.89C211.87 76.1249 211.753 75.4439 211.534 74.9662L209.716 75.7995C209.783 75.9467 209.881 76.3334 209.952 77.0788C210.019 77.7901 210.055 78.7319 210.055 79.9141H212.055ZM211.553 75.0114C211.063 73.7856 209.835 73.4062 208.594 73.4062V75.4062C209.54 75.4062 209.666 75.678 209.697 75.7542L211.553 75.0114ZM208.594 73.4062C207.459 73.4062 206.466 73.8063 205.797 74.7103L207.406 75.8991C207.623 75.6052 207.958 75.4062 208.594 75.4062V73.4062ZM205.81 74.6932C205.171 75.5203 204.938 76.6553 204.938 77.9219H206.938C206.938 76.8447 207.147 76.2349 207.393 75.9161L205.81 74.6932ZM204.938 77.9219C204.938 79.528 205.04 80.8121 205.286 81.7034L207.214 81.1716C207.043 80.5524 206.938 79.4928 206.938 77.9219H204.938ZM205.298 81.7435C205.624 82.7568 206.477 83.7168 207.613 84.6366L208.871 83.0821C207.82 82.2311 207.345 81.5766 207.202 81.1315L205.298 81.7435ZM207.622 84.6438C208.836 85.6041 211.207 86.9351 214.636 88.6237L215.52 86.8294C212.074 85.1326 209.888 83.8855 208.862 83.075L207.622 84.6438ZM214.639 88.625C219.202 90.8548 222.014 92.8752 223.291 94.641L224.912 93.4684C223.325 91.2758 220.121 89.0775 215.517 86.8281L214.639 88.625ZM223.291 94.641C224.549 96.3793 225.25 99.0145 225.25 102.688H227.25C227.25 98.8084 226.518 95.6884 224.912 93.4684L223.291 94.641ZM225.25 102.688C225.25 106.85 224.706 109.853 223.717 111.806L225.502 112.709C226.701 110.34 227.25 106.963 227.25 102.688H225.25ZM223.719 111.802C222.746 113.702 221.099 115.212 218.688 116.308L219.515 118.129C222.26 116.881 224.285 115.085 225.499 112.714L223.719 111.802ZM218.692 116.306C216.301 117.38 213.362 117.938 209.844 117.938V119.938C213.565 119.938 216.798 119.349 219.511 118.131L218.692 116.306ZM209.844 117.938C205.934 117.938 202.639 117.328 199.931 116.146L199.131 117.979C202.152 119.297 205.733 119.938 209.844 119.938V117.938ZM199.934 116.147C197.244 114.963 195.502 113.409 194.566 111.537L192.777 112.432C193.977 114.831 196.141 116.662 199.128 117.978L199.934 116.147ZM194.566 111.537C193.604 109.612 193.07 106.571 193.07 102.297H191.07C191.07 106.669 191.605 110.086 192.777 112.432L194.566 111.537ZM193.07 102.297V99.7969H191.07V102.297H193.07ZM192.07 100.797H206.055V98.7969H192.07V100.797ZM205.055 99.7969V103.078H207.055V99.7969H205.055ZM205.055 103.078C205.055 104.488 205.097 105.671 205.186 106.619C205.272 107.543 205.409 108.325 205.636 108.884L207.489 108.131C207.377 107.857 207.26 107.318 207.177 106.432C207.097 105.57 207.055 104.455 207.055 103.078H205.055ZM205.646 108.909C205.903 109.495 206.301 109.978 206.853 110.306C207.396 110.627 208.02 110.758 208.672 110.758V108.758C208.282 108.758 208.033 108.68 207.873 108.585C207.722 108.495 207.587 108.354 207.479 108.107L205.646 108.909ZM208.672 110.758C209.915 110.758 211.071 110.458 211.793 109.567L210.238 108.308C210.075 108.51 209.668 108.758 208.672 108.758V110.758ZM211.807 109.549C212.169 109.08 212.374 108.46 212.497 107.803C212.623 107.128 212.68 106.316 212.68 105.383H210.68C210.68 106.246 210.626 106.925 210.531 107.436C210.432 107.963 210.305 108.222 210.224 108.326L211.807 109.549ZM212.68 105.383C212.68 104.115 212.607 103.042 212.448 102.183C212.296 101.359 212.039 100.584 211.557 100.059L210.083 101.41C210.174 101.51 210.347 101.822 210.482 102.547C210.609 103.238 210.68 104.177 210.68 105.383H212.68ZM211.542 100.042C211.31 99.8 210.923 99.5141 210.47 99.2077C209.992 98.885 209.365 98.4894 208.593 98.023C207.048 97.0895 204.891 95.8523 202.127 94.3137L201.154 96.0613C203.911 97.5956 206.044 98.8194 207.559 99.7348C208.317 100.193 208.912 100.569 209.35 100.865C209.811 101.177 210.031 101.356 210.098 101.426L211.542 100.042ZM202.13 94.3157C199.845 93.0316 198.036 91.825 196.685 90.6989C195.326 89.5652 194.486 88.5568 194.065 87.6834L192.263 88.551C192.858 89.787 193.938 91.0116 195.404 92.2347C196.88 93.4653 198.801 94.7393 201.151 96.0593L202.13 94.3157ZM194.067 87.6877C193.128 85.714 192.641 83.3411 192.641 80.5391H190.641C190.641 83.5704 191.168 86.2495 192.261 88.5467L194.067 87.6877ZM192.641 80.5391C192.641 76.4467 193.188 73.6115 194.154 71.887L192.409 70.9098C191.187 73.0916 190.641 76.3501 190.641 80.5391H192.641ZM194.156 71.8821C195.115 70.1472 196.761 68.7563 199.207 67.7534L198.449 65.9029C195.687 67.0353 193.635 68.6914 192.406 70.9148L194.156 71.8821ZM199.204 67.7547C201.692 66.7449 204.607 66.2266 207.969 66.2266V64.2266C204.404 64.2266 201.225 64.776 198.452 65.9016L199.204 67.7547ZM207.969 66.2266C211.326 66.2266 214.118 66.6597 216.372 67.4927L217.065 65.6167C214.528 64.6788 211.486 64.2266 207.969 64.2266V66.2266ZM216.384 67.4971C218.699 68.3186 220.386 69.3862 221.519 70.6574L223.012 69.327C221.593 67.7336 219.582 66.5095 217.053 65.6123L216.384 67.4971ZM221.526 70.6649C222.768 72.0317 223.423 73.2038 223.631 74.1847L225.587 73.7685C225.275 72.3014 224.367 70.8172 223.006 69.3195L221.526 70.6649ZM223.636 74.2044C223.894 75.3103 224.039 77.1279 224.039 79.7188H226.039C226.039 77.1013 225.897 75.0908 225.583 73.7487L223.636 74.2044ZM224.039 79.7188V82.7266H226.039V79.7188H224.039Z" fill="#102821" mask="url(#path-1-inside-1_1250_37)"/>
<path d="M249.57 112.39C250.53 113.86 249.96 115.42 249.12 116.53C248.43 117.43 247.56 118.12 246.36 118.3C246.09 118.33 245.85 118.3 245.61 118.3C244.26 118.45 242.28 117.4 241.92 115.93C241.56 114.55 241.92 113.41 242.79 112.36C243.57 111.46 244.47 110.77 245.67 110.68C246.9 110.56 248.73 111.1 249.57 112.39Z" fill="#102821"/>
<mask id="path-4-inside-2_1250_37" fill="white">
<path d="M233.039 82.7266H219.055V79.9141C219.055 77.5182 218.911 76.0078 218.625 75.3828C218.365 74.7318 217.688 74.4062 216.594 74.4062C215.708 74.4062 215.044 74.7057 214.602 75.3047C214.159 75.8776 213.938 76.75 213.938 77.9219C213.938 79.5104 214.042 80.6823 214.25 81.4375C214.484 82.1667 215.148 82.974 216.242 83.8594C217.362 84.7448 219.641 86.0339 223.078 87.7266C227.661 89.9661 230.669 92.0755 232.102 94.0547C233.534 96.0339 234.25 98.9115 234.25 102.688C234.25 106.906 233.703 110.096 232.609 112.258C231.516 114.393 229.68 116.047 227.102 117.219C224.549 118.365 221.464 118.938 217.844 118.938C213.833 118.938 210.396 118.312 207.531 117.062C204.693 115.812 202.74 114.12 201.672 111.984C200.604 109.849 200.07 106.62 200.07 102.297V99.7969H214.055V103.078C214.055 105.865 214.224 107.674 214.562 108.508C214.927 109.341 215.63 109.758 216.672 109.758C217.792 109.758 218.573 109.484 219.016 108.938C219.458 108.365 219.68 107.18 219.68 105.383C219.68 102.909 219.393 101.359 218.82 100.734C218.221 100.109 215.161 98.2604 209.641 95.1875C205.005 92.5833 202.18 90.2266 201.164 88.1172C200.148 85.9818 199.641 83.4557 199.641 80.5391C199.641 76.3984 200.188 73.3516 201.281 71.3984C202.375 69.4193 204.224 67.8958 206.828 66.8281C209.458 65.7604 212.505 65.2266 215.969 65.2266C219.406 65.2266 222.323 65.6693 224.719 66.5547C227.141 67.4141 228.99 68.5599 230.266 69.9922C231.568 71.4245 232.349 72.7526 232.609 73.9766C232.896 75.2005 233.039 77.1146 233.039 79.7188V82.7266Z"/>
</mask>
<path d="M233.039 82.7266H219.055V79.9141C219.055 77.5182 218.911 76.0078 218.625 75.3828C218.365 74.7318 217.688 74.4062 216.594 74.4062C215.708 74.4062 215.044 74.7057 214.602 75.3047C214.159 75.8776 213.938 76.75 213.938 77.9219C213.938 79.5104 214.042 80.6823 214.25 81.4375C214.484 82.1667 215.148 82.974 216.242 83.8594C217.362 84.7448 219.641 86.0339 223.078 87.7266C227.661 89.9661 230.669 92.0755 232.102 94.0547C233.534 96.0339 234.25 98.9115 234.25 102.688C234.25 106.906 233.703 110.096 232.609 112.258C231.516 114.393 229.68 116.047 227.102 117.219C224.549 118.365 221.464 118.938 217.844 118.938C213.833 118.938 210.396 118.312 207.531 117.062C204.693 115.812 202.74 114.12 201.672 111.984C200.604 109.849 200.07 106.62 200.07 102.297V99.7969H214.055V103.078C214.055 105.865 214.224 107.674 214.562 108.508C214.927 109.341 215.63 109.758 216.672 109.758C217.792 109.758 218.573 109.484 219.016 108.938C219.458 108.365 219.68 107.18 219.68 105.383C219.68 102.909 219.393 101.359 218.82 100.734C218.221 100.109 215.161 98.2604 209.641 95.1875C205.005 92.5833 202.18 90.2266 201.164 88.1172C200.148 85.9818 199.641 83.4557 199.641 80.5391C199.641 76.3984 200.188 73.3516 201.281 71.3984C202.375 69.4193 204.224 67.8958 206.828 66.8281C209.458 65.7604 212.505 65.2266 215.969 65.2266C219.406 65.2266 222.323 65.6693 224.719 66.5547C227.141 67.4141 228.99 68.5599 230.266 69.9922C231.568 71.4245 232.349 72.7526 232.609 73.9766C232.896 75.2005 233.039 77.1146 233.039 79.7188V82.7266Z" fill="#B88457"/>
<path d="M233.039 82.7266V83.7266H234.039V82.7266H233.039ZM219.055 82.7266H218.055V83.7266H219.055V82.7266ZM218.625 75.3828L217.697 75.7542L217.706 75.7771L217.716 75.7995L218.625 75.3828ZM214.602 75.3047L215.393 75.9161L215.399 75.9077L215.406 75.8991L214.602 75.3047ZM214.25 81.4375L213.286 81.7034L213.292 81.7236L213.298 81.7435L214.25 81.4375ZM216.242 83.8594L215.613 84.6367L215.622 84.6438L216.242 83.8594ZM223.078 87.7266L222.636 88.6237L222.639 88.625L223.078 87.7266ZM232.609 112.258L233.499 112.714L233.502 112.709L232.609 112.258ZM227.102 117.219L227.511 118.131L227.515 118.129L227.102 117.219ZM207.531 117.062L207.128 117.978L207.131 117.979L207.531 117.062ZM200.07 99.7969V98.7969H199.07V99.7969H200.07ZM214.055 99.7969H215.055V98.7969H214.055V99.7969ZM214.562 108.508L213.636 108.884L213.641 108.896L213.646 108.909L214.562 108.508ZM219.016 108.938L219.793 109.567L219.8 109.558L219.807 109.549L219.016 108.938ZM218.82 100.734L219.557 100.059L219.55 100.05L219.542 100.042L218.82 100.734ZM209.641 95.1875L209.151 96.0593L209.154 96.0613L209.641 95.1875ZM201.164 88.1172L200.261 88.5467L200.263 88.551L201.164 88.1172ZM201.281 71.3984L202.154 71.887L202.156 71.8821L201.281 71.3984ZM206.828 66.8281L206.452 65.9016L206.449 65.9029L206.828 66.8281ZM224.719 66.5547L224.372 67.4928L224.384 67.4971L224.719 66.5547ZM230.266 69.9922L229.519 70.6574L229.526 70.6649L230.266 69.9922ZM232.609 73.9766L231.631 74.1847L231.633 74.1946L231.636 74.2044L232.609 73.9766ZM233.039 81.7266H219.055V83.7266H233.039V81.7266ZM220.055 82.7266V79.9141H218.055V82.7266H220.055ZM220.055 79.9141C220.055 78.7004 220.019 77.6891 219.943 76.89C219.87 76.1249 219.753 75.4439 219.534 74.9662L217.716 75.7995C217.783 75.9467 217.881 76.3334 217.952 77.0788C218.019 77.7901 218.055 78.7319 218.055 79.9141H220.055ZM219.553 75.0114C219.063 73.7856 217.835 73.4062 216.594 73.4062V75.4062C217.54 75.4062 217.666 75.678 217.697 75.7542L219.553 75.0114ZM216.594 73.4062C215.459 73.4062 214.466 73.8063 213.797 74.7103L215.406 75.8991C215.623 75.6052 215.958 75.4062 216.594 75.4062V73.4062ZM213.81 74.6932C213.171 75.5203 212.938 76.6553 212.938 77.9219H214.938C214.938 76.8447 215.147 76.2349 215.393 75.9161L213.81 74.6932ZM212.938 77.9219C212.938 79.528 213.04 80.8121 213.286 81.7034L215.214 81.1716C215.043 80.5524 214.938 79.4928 214.938 77.9219H212.938ZM213.298 81.7435C213.624 82.7568 214.477 83.7168 215.613 84.6366L216.871 83.0821C215.82 82.2311 215.345 81.5766 215.202 81.1315L213.298 81.7435ZM215.622 84.6438C216.836 85.6041 219.207 86.9351 222.636 88.6237L223.52 86.8294C220.074 85.1326 217.888 83.8855 216.862 83.075L215.622 84.6438ZM222.639 88.625C227.202 90.8548 230.014 92.8752 231.291 94.641L232.912 93.4684C231.325 91.2758 228.121 89.0775 223.517 86.8281L222.639 88.625ZM231.291 94.641C232.549 96.3793 233.25 99.0145 233.25 102.688H235.25C235.25 98.8084 234.518 95.6884 232.912 93.4684L231.291 94.641ZM233.25 102.688C233.25 106.85 232.706 109.853 231.717 111.806L233.502 112.709C234.701 110.34 235.25 106.963 235.25 102.688H233.25ZM231.719 111.802C230.746 113.702 229.099 115.212 226.688 116.308L227.515 118.129C230.26 116.881 232.285 115.085 233.499 112.714L231.719 111.802ZM226.692 116.306C224.301 117.38 221.362 117.938 217.844 117.938V119.938C221.565 119.938 224.798 119.349 227.511 118.131L226.692 116.306ZM217.844 117.938C213.934 117.938 210.639 117.328 207.931 116.146L207.131 117.979C210.152 119.297 213.733 119.938 217.844 119.938V117.938ZM207.934 116.147C205.244 114.963 203.502 113.409 202.566 111.537L200.777 112.432C201.977 114.831 204.141 116.662 207.128 117.978L207.934 116.147ZM202.566 111.537C201.604 109.612 201.07 106.571 201.07 102.297H199.07C199.07 106.669 199.605 110.086 200.777 112.432L202.566 111.537ZM201.07 102.297V99.7969H199.07V102.297H201.07ZM200.07 100.797H214.055V98.7969H200.07V100.797ZM213.055 99.7969V103.078H215.055V99.7969H213.055ZM213.055 103.078C213.055 104.488 213.097 105.671 213.186 106.619C213.272 107.543 213.409 108.325 213.636 108.884L215.489 108.131C215.377 107.857 215.26 107.318 215.177 106.432C215.097 105.57 215.055 104.455 215.055 103.078H213.055ZM213.646 108.909C213.903 109.495 214.301 109.978 214.853 110.306C215.396 110.627 216.02 110.758 216.672 110.758V108.758C216.282 108.758 216.033 108.68 215.873 108.585C215.722 108.495 215.587 108.354 215.479 108.107L213.646 108.909ZM216.672 110.758C217.915 110.758 219.071 110.458 219.793 109.567L218.238 108.308C218.075 108.51 217.668 108.758 216.672 108.758V110.758ZM219.807 109.549C220.169 109.08 220.374 108.46 220.497 107.803C220.623 107.128 220.68 106.316 220.68 105.383H218.68C218.68 106.246 218.626 106.925 218.531 107.436C218.432 107.963 218.305 108.222 218.224 108.326L219.807 109.549ZM220.68 105.383C220.68 104.115 220.607 103.042 220.448 102.183C220.296 101.359 220.039 100.584 219.557 100.059L218.083 101.41C218.174 101.51 218.347 101.822 218.482 102.547C218.609 103.238 218.68 104.177 218.68 105.383H220.68ZM219.542 100.042C219.31 99.8 218.923 99.5141 218.47 99.2077C217.992 98.885 217.365 98.4894 216.593 98.023C215.048 97.0895 212.891 95.8523 210.127 94.3137L209.154 96.0613C211.911 97.5956 214.044 98.8194 215.559 99.7348C216.317 100.193 216.912 100.569 217.35 100.865C217.811 101.177 218.031 101.356 218.098 101.426L219.542 100.042ZM210.13 94.3157C207.845 93.0316 206.036 91.825 204.685 90.6989C203.326 89.5652 202.486 88.5568 202.065 87.6834L200.263 88.551C200.858 89.787 201.938 91.0116 203.404 92.2347C204.88 93.4653 206.801 94.7393 209.151 96.0593L210.13 94.3157ZM202.067 87.6877C201.128 85.714 200.641 83.3411 200.641 80.5391H198.641C198.641 83.5704 199.168 86.2495 200.261 88.5467L202.067 87.6877ZM200.641 80.5391C200.641 76.4467 201.188 73.6115 202.154 71.887L200.409 70.9098C199.187 73.0916 198.641 76.3501 198.641 80.5391H200.641ZM202.156 71.8821C203.115 70.1472 204.761 68.7563 207.207 67.7534L206.449 65.9029C203.687 67.0353 201.635 68.6914 200.406 70.9148L202.156 71.8821ZM207.204 67.7547C209.692 66.7449 212.607 66.2266 215.969 66.2266V64.2266C212.404 64.2266 209.225 64.776 206.452 65.9016L207.204 67.7547ZM215.969 66.2266C219.326 66.2266 222.118 66.6597 224.372 67.4927L225.065 65.6167C222.528 64.6788 219.486 64.2266 215.969 64.2266V66.2266ZM224.384 67.4971C226.699 68.3186 228.386 69.3862 229.519 70.6574L231.012 69.327C229.593 67.7336 227.582 66.5095 225.053 65.6123L224.384 67.4971ZM229.526 70.6649C230.768 72.0317 231.423 73.2038 231.631 74.1847L233.587 73.7685C233.275 72.3014 232.367 70.8172 231.006 69.3195L229.526 70.6649ZM231.636 74.2044C231.894 75.3103 232.039 77.1279 232.039 79.7188H234.039C234.039 77.1013 233.897 75.0908 233.583 73.7487L231.636 74.2044ZM232.039 79.7188V82.7266H234.039V79.7188H232.039Z" fill="#102821" mask="url(#path-4-inside-2_1250_37)"/>
<path d="M54 95L172 95" stroke="#102821" stroke-width="0.5" stroke-linecap="round"/>
<path d="M253 95L359 95" stroke="#102821" stroke-width="0.5" stroke-linecap="round"/>
<path d="M159.76 147.182H156.264V146.479C156.264 145.88 156.228 145.502 156.156 145.346C156.091 145.183 155.922 145.102 155.648 145.102C155.427 145.102 155.261 145.176 155.15 145.326C155.04 145.469 154.984 145.688 154.984 145.98C154.984 146.378 155.01 146.671 155.062 146.859C155.121 147.042 155.287 147.243 155.561 147.465C155.84 147.686 156.41 148.008 157.27 148.432C158.415 148.992 159.167 149.519 159.525 150.014C159.883 150.508 160.062 151.228 160.062 152.172C160.062 153.227 159.926 154.024 159.652 154.564C159.379 155.098 158.92 155.512 158.275 155.805C157.637 156.091 156.866 156.234 155.961 156.234C154.958 156.234 154.099 156.078 153.383 155.766C152.673 155.453 152.185 155.03 151.918 154.496C151.651 153.962 151.518 153.155 151.518 152.074V151.449H155.014V152.27C155.014 152.966 155.056 153.419 155.141 153.627C155.232 153.835 155.408 153.939 155.668 153.939C155.948 153.939 156.143 153.871 156.254 153.734C156.365 153.591 156.42 153.295 156.42 152.846C156.42 152.227 156.348 151.84 156.205 151.684C156.055 151.527 155.29 151.065 153.91 150.297C152.751 149.646 152.045 149.057 151.791 148.529C151.537 147.995 151.41 147.364 151.41 146.635C151.41 145.6 151.547 144.838 151.82 144.35C152.094 143.855 152.556 143.474 153.207 143.207C153.865 142.94 154.626 142.807 155.492 142.807C156.352 142.807 157.081 142.917 157.68 143.139C158.285 143.354 158.747 143.64 159.066 143.998C159.392 144.356 159.587 144.688 159.652 144.994C159.724 145.3 159.76 145.779 159.76 146.43V147.182ZM170.053 149.75H164.945V152.553C164.945 153.139 164.988 153.516 165.072 153.686C165.157 153.855 165.32 153.939 165.561 153.939C165.86 153.939 166.059 153.829 166.156 153.607C166.26 153.38 166.312 152.943 166.312 152.299V150.59H170.053V151.547C170.053 152.348 170.001 152.963 169.896 153.393C169.799 153.822 169.564 154.281 169.193 154.77C168.822 155.258 168.35 155.626 167.777 155.873C167.211 156.114 166.498 156.234 165.639 156.234C164.805 156.234 164.07 156.114 163.432 155.873C162.794 155.632 162.296 155.303 161.938 154.887C161.586 154.464 161.342 154.001 161.205 153.5C161.068 152.992 161 152.257 161 151.293V147.514C161 146.381 161.153 145.489 161.459 144.838C161.765 144.18 162.266 143.679 162.963 143.334C163.66 142.982 164.46 142.807 165.365 142.807C166.472 142.807 167.383 143.018 168.1 143.441C168.822 143.858 169.327 144.415 169.613 145.111C169.906 145.801 170.053 146.775 170.053 148.031V149.75ZM166.098 147.641V146.693C166.098 146.023 166.062 145.59 165.99 145.395C165.919 145.199 165.772 145.102 165.551 145.102C165.277 145.102 165.108 145.186 165.043 145.355C164.978 145.518 164.945 145.964 164.945 146.693V147.641H166.098ZM175.414 140.189V156H171.352V140.189H175.414ZM180.365 148.061H176.664V147.191C176.664 146.189 176.778 145.417 177.006 144.877C177.24 144.33 177.706 143.848 178.402 143.432C179.099 143.015 180.004 142.807 181.117 142.807C182.452 142.807 183.458 143.044 184.135 143.52C184.812 143.988 185.219 144.568 185.355 145.258C185.492 145.941 185.561 147.354 185.561 149.496V156H181.723V154.848C181.482 155.31 181.169 155.658 180.785 155.893C180.408 156.12 179.955 156.234 179.428 156.234C178.738 156.234 178.103 156.042 177.523 155.658C176.951 155.268 176.664 154.418 176.664 153.109V152.045C176.664 151.075 176.817 150.414 177.123 150.062C177.429 149.711 178.188 149.301 179.398 148.832C180.694 148.324 181.387 147.982 181.479 147.807C181.57 147.631 181.615 147.273 181.615 146.732C181.615 146.055 181.563 145.616 181.459 145.414C181.361 145.206 181.195 145.102 180.961 145.102C180.694 145.102 180.528 145.189 180.463 145.365C180.398 145.535 180.365 145.98 180.365 146.703V148.061ZM181.615 149.838C180.984 150.3 180.616 150.688 180.512 151C180.414 151.312 180.365 151.762 180.365 152.348C180.365 153.018 180.408 153.451 180.492 153.646C180.583 153.842 180.759 153.939 181.02 153.939C181.267 153.939 181.426 153.865 181.498 153.715C181.576 153.559 181.615 153.155 181.615 152.504V149.838ZM190.863 140.189V143.744C191.202 143.432 191.566 143.197 191.957 143.041C192.354 142.885 192.777 142.807 193.227 142.807C193.917 142.807 194.503 142.982 194.984 143.334C195.473 143.686 195.769 144.092 195.873 144.555C195.984 145.01 196.039 145.847 196.039 147.064V156H192.094V146.879C192.094 146.124 192.055 145.639 191.977 145.424C191.905 145.209 191.739 145.102 191.479 145.102C191.238 145.102 191.075 145.212 190.99 145.434C190.906 145.655 190.863 146.094 190.863 146.752V156H186.918V140.189H190.863ZM200.033 152.777V156H197.055V152.777H200.033Z" fill="#102821"/>
<path d="M204.82 140.189H211.676V143.354H208.932V146.352H211.5V149.359H208.932V152.836H211.949V156H204.82V140.189ZM217.037 143.041L216.969 144.232C217.255 143.757 217.604 143.402 218.014 143.168C218.43 142.927 218.909 142.807 219.449 142.807C220.126 142.807 220.68 142.966 221.109 143.285C221.539 143.604 221.816 144.008 221.939 144.496C222.063 144.978 222.125 145.785 222.125 146.918V156H218.18V147.025C218.18 146.133 218.15 145.59 218.092 145.395C218.033 145.199 217.87 145.102 217.604 145.102C217.324 145.102 217.148 145.215 217.076 145.443C217.005 145.665 216.969 146.264 216.969 147.24V156H213.023V143.041H217.037ZM232.213 147.934H228.492V146.439C228.492 145.919 228.45 145.567 228.365 145.385C228.281 145.196 228.124 145.102 227.896 145.102C227.669 145.102 227.516 145.183 227.438 145.346C227.359 145.508 227.32 145.873 227.32 146.439V152.553C227.32 153.015 227.379 153.363 227.496 153.598C227.613 153.826 227.786 153.939 228.014 153.939C228.281 153.939 228.46 153.819 228.551 153.578C228.648 153.337 228.697 152.882 228.697 152.211V150.668H232.213C232.206 151.703 232.167 152.481 232.096 153.002C232.031 153.516 231.812 154.047 231.441 154.594C231.077 155.134 230.598 155.544 230.006 155.824C229.413 156.098 228.681 156.234 227.809 156.234C226.695 156.234 225.813 156.046 225.162 155.668C224.511 155.284 224.049 154.75 223.775 154.066C223.508 153.376 223.375 152.4 223.375 151.137V147.455C223.375 146.355 223.486 145.525 223.707 144.965C223.928 144.405 224.4 143.907 225.123 143.471C225.846 143.028 226.725 142.807 227.76 142.807C228.788 142.807 229.667 143.025 230.396 143.461C231.126 143.897 231.611 144.447 231.852 145.111C232.092 145.775 232.213 146.716 232.213 147.934ZM237.34 143.041L237.184 144.74C237.757 143.523 238.587 142.878 239.674 142.807V147.367C238.951 147.367 238.421 147.465 238.082 147.66C237.743 147.855 237.535 148.129 237.457 148.48C237.379 148.826 237.34 149.626 237.34 150.883V156H233.395V143.041H237.34ZM249.195 143.041L248.062 152.416C247.887 153.9 247.737 154.913 247.613 155.453C247.496 155.993 247.298 156.439 247.018 156.791C246.738 157.143 246.347 157.4 245.846 157.562C245.351 157.732 244.557 157.816 243.463 157.816H241.07V155.746C241.682 155.746 242.076 155.717 242.252 155.658C242.428 155.593 242.516 155.453 242.516 155.238C242.516 155.134 242.434 154.682 242.271 153.881L240.113 143.041H243.697L244.986 151.781L245.611 143.041H249.195ZM253.912 143.041L253.844 144.184C254.195 143.721 254.583 143.376 255.006 143.148C255.429 142.921 255.891 142.807 256.393 142.807C257.005 142.807 257.532 142.973 257.975 143.305C258.424 143.63 258.704 144.008 258.814 144.438C258.925 144.867 258.98 145.596 258.98 146.625V152.084C258.98 153.262 258.909 154.102 258.766 154.604C258.629 155.098 258.342 155.495 257.906 155.795C257.477 156.088 256.956 156.234 256.344 156.234C255.855 156.234 255.403 156.12 254.986 155.893C254.57 155.665 254.189 155.326 253.844 154.877V157.846H249.898V143.041H253.912ZM255.035 146.811C255.035 146.01 255.006 145.525 254.947 145.355C254.889 145.186 254.726 145.102 254.459 145.102C254.199 145.102 254.029 145.199 253.951 145.395C253.88 145.59 253.844 146.062 253.844 146.811V152.182C253.844 152.963 253.883 153.451 253.961 153.646C254.039 153.842 254.208 153.939 254.469 153.939C254.723 153.939 254.879 153.852 254.938 153.676C255.003 153.493 255.035 153.057 255.035 152.367V146.811ZM264.449 141.312V143.354H265.514V145.404H264.449V152.338C264.449 153.191 264.492 153.666 264.576 153.764C264.667 153.861 265.035 153.91 265.68 153.91V156H264.088C263.189 156 262.548 155.964 262.164 155.893C261.78 155.814 261.441 155.642 261.148 155.375C260.855 155.102 260.673 154.792 260.602 154.447C260.53 154.096 260.494 153.275 260.494 151.986V145.404H259.645V143.354H260.494V141.312H264.449ZM275.318 149.75H270.211V152.553C270.211 153.139 270.253 153.516 270.338 153.686C270.423 153.855 270.585 153.939 270.826 153.939C271.126 153.939 271.324 153.829 271.422 153.607C271.526 153.38 271.578 152.943 271.578 152.299V150.59H275.318V151.547C275.318 152.348 275.266 152.963 275.162 153.393C275.064 153.822 274.83 154.281 274.459 154.77C274.088 155.258 273.616 155.626 273.043 155.873C272.477 156.114 271.764 156.234 270.904 156.234C270.071 156.234 269.335 156.114 268.697 155.873C268.059 155.632 267.561 155.303 267.203 154.887C266.852 154.464 266.607 154.001 266.471 153.5C266.334 152.992 266.266 152.257 266.266 151.293V147.514C266.266 146.381 266.419 145.489 266.725 144.838C267.031 144.18 267.532 143.679 268.229 143.334C268.925 142.982 269.726 142.807 270.631 142.807C271.738 142.807 272.649 143.018 273.365 143.441C274.088 143.858 274.592 144.415 274.879 145.111C275.172 145.801 275.318 146.775 275.318 148.031V149.75ZM271.363 147.641V146.693C271.363 146.023 271.327 145.59 271.256 145.395C271.184 145.199 271.038 145.102 270.816 145.102C270.543 145.102 270.374 145.186 270.309 145.355C270.243 145.518 270.211 145.964 270.211 146.693V147.641H271.363ZM285.592 140.189V156H281.646V155.062C281.269 155.453 280.872 155.746 280.455 155.941C280.038 156.137 279.602 156.234 279.146 156.234C278.535 156.234 278.004 156.075 277.555 155.756C277.105 155.43 276.816 155.056 276.686 154.633C276.562 154.21 276.5 153.52 276.5 152.562V146.498C276.5 145.502 276.562 144.796 276.686 144.379C276.816 143.962 277.109 143.598 277.564 143.285C278.02 142.966 278.564 142.807 279.195 142.807C279.684 142.807 280.13 142.895 280.533 143.07C280.943 143.246 281.314 143.51 281.646 143.861V140.189H285.592ZM281.646 146.303C281.646 145.827 281.604 145.508 281.52 145.346C281.441 145.183 281.282 145.102 281.041 145.102C280.807 145.102 280.647 145.176 280.562 145.326C280.484 145.469 280.445 145.795 280.445 146.303V152.65C280.445 153.178 280.484 153.526 280.562 153.695C280.641 153.858 280.79 153.939 281.012 153.939C281.266 153.939 281.435 153.848 281.52 153.666C281.604 153.477 281.646 153.021 281.646 152.299V146.303ZM289.635 152.777V156H286.656V152.777H289.635Z" fill="#B88457"/>
</svg>
