<svg width="174" height="66" viewBox="0 0 174 66" fill="none" xmlns="http://www.w3.org/2000/svg">
<g clip-path="url(#clip0_1212_47)">
<mask id="path-1-inside-1_1212_47" fill="white">
<path d="M95.8994 21.9541H87.1592V20.1963C87.1592 18.6989 87.0697 17.7549 86.8906 17.3643C86.7279 16.9574 86.3047 16.7539 85.6211 16.7539C85.0677 16.7539 84.6527 16.9411 84.376 17.3154C84.0993 17.6735 83.9609 18.2188 83.9609 18.9512C83.9609 19.944 84.026 20.6764 84.1562 21.1484C84.3027 21.6042 84.7178 22.1087 85.4014 22.6621C86.1012 23.2155 87.5254 24.0212 89.6738 25.0791C92.5384 26.4788 94.4183 27.7972 95.3135 29.0342C96.2087 30.2712 96.6562 32.0697 96.6562 34.4297C96.6562 37.0664 96.3145 39.0602 95.6309 40.4111C94.9473 41.7458 93.7998 42.7793 92.1885 43.5117C90.5934 44.2279 88.6647 44.5859 86.4023 44.5859C83.8958 44.5859 81.7474 44.1953 79.957 43.4141C78.1829 42.6328 76.9622 41.5749 76.2949 40.2402C75.6276 38.9056 75.2939 36.8874 75.2939 34.1855V32.623H84.0342V34.6738C84.0342 36.4154 84.14 37.5465 84.3516 38.0674C84.5794 38.5882 85.0189 38.8486 85.6699 38.8486C86.3698 38.8486 86.8581 38.6777 87.1348 38.3359C87.4115 37.9779 87.5498 37.2373 87.5498 36.1143C87.5498 34.568 87.3708 33.5996 87.0127 33.209C86.6383 32.8184 84.7259 31.6628 81.2754 29.7422C78.3783 28.1146 76.6123 26.6416 75.9775 25.3232C75.3428 23.9886 75.0254 22.4098 75.0254 20.5869C75.0254 17.999 75.3672 16.0947 76.0508 14.874C76.7344 13.637 77.89 12.6849 79.5176 12.0176C81.1615 11.3503 83.0658 11.0166 85.2305 11.0166C87.3789 11.0166 89.2018 11.2933 90.6992 11.8467C92.2129 12.3838 93.3685 13.0999 94.166 13.9951C94.9798 14.8903 95.4681 15.7204 95.6309 16.4854C95.8099 17.2503 95.8994 18.4466 95.8994 20.0742V21.9541Z"/>
</mask>
<path d="M95.8994 21.9541H87.1592V20.1963C87.1592 18.6989 87.0697 17.7549 86.8906 17.3643C86.7279 16.9574 86.3047 16.7539 85.6211 16.7539C85.0677 16.7539 84.6527 16.9411 84.376 17.3154C84.0993 17.6735 83.9609 18.2188 83.9609 18.9512C83.9609 19.944 84.026 20.6764 84.1562 21.1484C84.3027 21.6042 84.7178 22.1087 85.4014 22.6621C86.1012 23.2155 87.5254 24.0212 89.6738 25.0791C92.5384 26.4788 94.4183 27.7972 95.3135 29.0342C96.2087 30.2712 96.6562 32.0697 96.6562 34.4297C96.6562 37.0664 96.3145 39.0602 95.6309 40.4111C94.9473 41.7458 93.7998 42.7793 92.1885 43.5117C90.5934 44.2279 88.6647 44.5859 86.4023 44.5859C83.8958 44.5859 81.7474 44.1953 79.957 43.4141C78.1829 42.6328 76.9622 41.5749 76.2949 40.2402C75.6276 38.9056 75.2939 36.8874 75.2939 34.1855V32.623H84.0342V34.6738C84.0342 36.4154 84.14 37.5465 84.3516 38.0674C84.5794 38.5882 85.0189 38.8486 85.6699 38.8486C86.3698 38.8486 86.8581 38.6777 87.1348 38.3359C87.4115 37.9779 87.5498 37.2373 87.5498 36.1143C87.5498 34.568 87.3708 33.5996 87.0127 33.209C86.6383 32.8184 84.7259 31.6628 81.2754 29.7422C78.3783 28.1146 76.6123 26.6416 75.9775 25.3232C75.3428 23.9886 75.0254 22.4098 75.0254 20.5869C75.0254 17.999 75.3672 16.0947 76.0508 14.874C76.7344 13.637 77.89 12.6849 79.5176 12.0176C81.1615 11.3503 83.0658 11.0166 85.2305 11.0166C87.3789 11.0166 89.2018 11.2933 90.6992 11.8467C92.2129 12.3838 93.3685 13.0999 94.166 13.9951C94.9798 14.8903 95.4681 15.7204 95.6309 16.4854C95.8099 17.2503 95.8994 18.4466 95.8994 20.0742V21.9541Z" fill="#102821"/>
<path d="M95.8994 21.9541V22.9541H96.8994V21.9541H95.8994ZM87.1592 21.9541H86.1592V22.9541H87.1592V21.9541ZM86.8906 17.3643L85.9621 17.7356L85.9713 17.7585L85.9816 17.7809L86.8906 17.3643ZM84.376 17.3154L85.1673 17.9269L85.1738 17.9184L85.1802 17.9098L84.376 17.3154ZM84.1562 21.1484L83.1923 21.4144L83.1978 21.4345L83.2042 21.4544L84.1562 21.1484ZM85.4014 22.6621L84.7721 23.4394L84.7811 23.4465L85.4014 22.6621ZM89.6738 25.0791L89.2321 25.9762L89.2348 25.9776L89.6738 25.0791ZM95.3135 29.0342L96.1236 28.4479L95.3135 29.0342ZM95.6309 40.4111L96.5209 40.867L96.5231 40.8626L95.6309 40.4111ZM92.1885 43.5117L92.5981 44.424L92.6023 44.4221L92.1885 43.5117ZM79.957 43.4141L79.554 44.3293L79.5571 44.3306L79.957 43.4141ZM75.2939 32.623V31.623H74.2939V32.623H75.2939ZM84.0342 32.623H85.0342V31.623H84.0342V32.623ZM84.3516 38.0674L83.4251 38.4438L83.4301 38.456L83.4354 38.4682L84.3516 38.0674ZM87.1348 38.3359L87.912 38.9651L87.9191 38.9563L87.9261 38.9474L87.1348 38.3359ZM87.0127 33.209L87.7498 32.5333L87.7424 32.5251L87.7347 32.5171L87.0127 33.209ZM81.2754 29.7422L80.7856 30.614L80.789 30.616L81.2754 29.7422ZM75.9775 25.3232L75.0745 25.7528L75.0765 25.7571L75.9775 25.3232ZM76.0508 14.874L76.9233 15.3626L76.926 15.3577L76.0508 14.874ZM79.5176 12.0176L79.1414 11.091L79.1382 11.0923L79.5176 12.0176ZM90.6992 11.8467L90.3525 12.7848L90.3648 12.7891L90.6992 11.8467ZM94.166 13.9951L93.4193 14.6604L93.4261 14.6678L94.166 13.9951ZM95.6309 16.4854L94.6528 16.6935L94.6549 16.7034L94.6572 16.7132L95.6309 16.4854ZM95.8994 20.9541H87.1592V22.9541H95.8994V20.9541ZM88.1592 21.9541V20.1963H86.1592V21.9541H88.1592ZM88.1592 20.1963C88.1592 19.4318 88.1365 18.7867 88.0876 18.2708C88.0419 17.7889 87.9649 17.3082 87.7997 16.9476L85.9816 17.7809C85.9812 17.78 86.0017 17.8286 86.0278 17.9583C86.0524 18.0808 86.0762 18.2459 86.0965 18.4596C86.1371 18.8877 86.1592 19.4633 86.1592 20.1963H88.1592ZM87.8191 16.9929C87.4264 16.0111 86.4521 15.7539 85.6211 15.7539V17.7539C85.876 17.7539 85.9887 17.7937 86.0179 17.8077C86.0277 17.8125 86.0165 17.8087 85.9983 17.7898C85.9793 17.77 85.9675 17.7489 85.9621 17.7356L87.8191 16.9929ZM85.6211 15.7539C84.8182 15.7539 84.074 16.0416 83.5718 16.721L85.1802 17.9098C85.2314 17.8405 85.3172 17.7539 85.6211 17.7539V15.7539ZM83.5847 16.704C83.1116 17.3162 82.9609 18.124 82.9609 18.9512H84.9609C84.9609 18.3135 85.087 18.0308 85.1673 17.9269L83.5847 16.704ZM82.9609 18.9512C82.9609 19.9616 83.0245 20.8063 83.1923 21.4144L85.1202 20.8825C85.0276 20.5466 84.9609 19.9264 84.9609 18.9512H82.9609ZM83.2042 21.4544C83.442 22.1943 84.0461 22.8516 84.7722 23.4394L86.0306 21.8849C85.3894 21.3658 85.1635 21.0141 85.1083 20.8424L83.2042 21.4544ZM84.7811 23.4465C85.5757 24.0748 87.0919 24.9224 89.2321 25.9762L90.1156 24.182C87.9589 23.1199 86.6268 22.3562 86.0216 21.8777L84.7811 23.4465ZM89.2348 25.9776C92.0793 27.3675 93.7626 28.5969 94.5034 29.6204L96.1236 28.4479C95.074 26.9975 92.9975 25.5902 90.1129 24.1806L89.2348 25.9776ZM94.5034 29.6204C95.2243 30.6167 95.6562 32.1728 95.6562 34.4297H97.6562C97.6562 31.9666 97.193 29.9257 96.1236 28.4479L94.5034 29.6204ZM95.6562 34.4297C95.6562 37.0097 95.3169 38.8168 94.7386 39.9596L96.5231 40.8626C97.312 39.3036 97.6562 37.1231 97.6562 34.4297H95.6562ZM94.7408 39.9553C94.1779 41.0543 93.2191 41.9448 91.7747 42.6014L92.6023 44.4221C94.3805 43.6138 95.7166 42.4373 96.5209 40.867L94.7408 39.9553ZM91.7789 42.5994C90.3446 43.2434 88.5633 43.5859 86.4023 43.5859V45.5859C88.7661 45.5859 90.8423 45.2123 92.5981 44.424L91.7789 42.5994ZM86.4023 43.5859C83.996 43.5859 81.9909 43.2105 80.357 42.4975L79.5571 44.3306C81.5039 45.1801 83.7956 45.5859 86.4023 45.5859V43.5859ZM80.3601 42.4989C78.7345 41.7831 77.7246 40.8636 77.1893 39.793L75.4005 40.6874C76.1998 42.2861 77.6313 43.4826 79.554 44.3293L80.3601 42.4989ZM77.1893 39.793C76.6271 38.6685 76.2939 36.8386 76.2939 34.1855H74.2939C74.2939 36.9361 74.6281 39.1427 75.4005 40.6874L77.1893 39.793ZM76.2939 34.1855V32.623H74.2939V34.1855H76.2939ZM75.2939 33.623H84.0342V31.623H75.2939V33.623ZM83.0342 32.623V34.6738H85.0342V32.623H83.0342ZM83.0342 34.6738C83.0342 35.5612 83.061 36.3133 83.1179 36.9215C83.1726 37.5064 83.2616 38.0412 83.4251 38.4438L85.278 37.691C85.23 37.5727 85.1603 37.2816 85.1092 36.7353C85.0603 36.2123 85.0342 35.528 85.0342 34.6738H83.0342ZM83.4354 38.4682C83.6234 38.8979 83.9221 39.2646 84.3422 39.5136C84.7532 39.7572 85.2135 39.8486 85.6699 39.8486V37.8486C85.4753 37.8486 85.3903 37.8099 85.3619 37.793C85.3426 37.7816 85.3076 37.7577 85.2677 37.6666L83.4354 38.4682ZM85.6699 39.8486C86.4934 39.8486 87.3563 39.6516 87.912 38.9651L86.3575 37.7067C86.3553 37.7095 86.3309 37.7415 86.2307 37.7766C86.1228 37.8144 85.9444 37.8486 85.6699 37.8486V39.8486ZM87.9261 38.9474C88.2054 38.5859 88.3478 38.1306 88.429 37.6956C88.5136 37.2431 88.5498 36.7106 88.5498 36.1143H86.5498C86.5498 36.641 86.5169 37.0402 86.4631 37.3283C86.406 37.6339 86.3408 37.7279 86.3435 37.7245L87.9261 38.9474ZM88.5498 36.1143C88.5498 35.3104 88.5039 34.6144 88.3989 34.0465C88.3002 33.5125 88.1241 32.9415 87.7498 32.5333L86.2755 33.8847C86.2594 33.8671 86.3519 33.9756 86.4322 34.4101C86.5062 34.8105 86.5498 35.3719 86.5498 36.1143H88.5498ZM87.7347 32.5171C87.5584 32.3332 87.2853 32.1346 87.0037 31.9442C86.6979 31.7374 86.2997 31.4865 85.8148 31.1934C84.8435 30.6066 83.4908 29.8308 81.7617 28.8684L80.789 30.616C82.5105 31.5741 83.8392 32.3365 84.7804 32.9052C85.2517 33.19 85.6175 33.4212 85.8834 33.601C86.0164 33.6909 86.1179 33.7636 86.1917 33.8202C86.2718 33.8816 86.296 33.9064 86.2907 33.9009L87.7347 32.5171ZM81.7652 28.8704C80.3486 28.0745 79.239 27.3331 78.4186 26.6488C77.5893 25.9571 77.1086 25.3673 76.8785 24.8894L75.0765 25.7571C75.4812 26.5975 76.2009 27.4034 77.1375 28.1847C78.0831 28.9734 79.305 29.7822 80.7856 30.614L81.7652 28.8704ZM76.8806 24.8937C76.3228 23.7209 76.0254 22.2952 76.0254 20.5869H74.0254C74.0254 22.5245 74.3628 24.2563 75.0745 25.7527L76.8806 24.8937ZM76.0254 20.5869C76.0254 18.0473 76.3677 16.3547 76.9233 15.3626L75.1783 14.3854C74.3666 15.8348 74.0254 17.9507 74.0254 20.5869H76.0254ZM76.926 15.3577C77.4747 14.3649 78.4272 13.5454 79.8969 12.9428L79.1382 11.0923C77.3527 11.8244 75.9941 12.9091 75.1755 14.3903L76.926 15.3577ZM79.8937 12.9441C81.395 12.3347 83.1671 12.0166 85.2305 12.0166V10.0166C82.9644 10.0166 80.928 10.3658 79.1414 11.091L79.8937 12.9441ZM85.2305 12.0166C87.2989 12.0166 88.9972 12.2838 90.3526 12.7847L91.0459 10.9087C89.4065 10.3028 87.4589 10.0166 85.2305 10.0166V12.0166ZM90.3648 12.7891C91.7717 13.2883 92.7653 13.9262 93.4194 14.6603L94.9127 13.3299C93.9716 12.2737 92.6541 11.4793 91.0336 10.9043L90.3648 12.7891ZM93.4261 14.6678C94.1804 15.4975 94.5417 16.1716 94.6528 16.6935L96.609 16.2772C96.3945 15.2692 95.7792 14.2831 94.906 13.3224L93.4261 14.6678ZM94.6572 16.7132C94.8086 17.3601 94.8994 18.4599 94.8994 20.0742H96.8994C96.8994 18.4333 96.8112 17.1406 96.6045 16.2575L94.6572 16.7132ZM94.8994 20.0742V21.9541H96.8994V20.0742H94.8994Z" fill="#102821" mask="url(#path-1-inside-1_1212_47)"/>
<path d="M110.57 41.39C111.53 42.86 110.96 44.42 110.12 45.53C109.43 46.43 108.56 47.12 107.36 47.3C107.09 47.33 106.85 47.3 106.61 47.3C105.26 47.45 103.28 46.4 102.92 44.93C102.56 43.55 102.92 42.41 103.79 41.36C104.57 40.46 105.47 39.77 106.67 39.68C107.9 39.56 109.73 40.1 110.57 41.39Z" fill="#102821"/>
<mask id="path-4-inside-2_1212_47" fill="white">
<path d="M97.8994 21.9541H89.1592V20.1963C89.1592 18.6989 89.0697 17.7549 88.8906 17.3643C88.7279 16.9574 88.3047 16.7539 87.6211 16.7539C87.0677 16.7539 86.6527 16.9411 86.376 17.3154C86.0993 17.6735 85.9609 18.2188 85.9609 18.9512C85.9609 19.944 86.026 20.6764 86.1562 21.1484C86.3027 21.6042 86.7178 22.1087 87.4014 22.6621C88.1012 23.2155 89.5254 24.0212 91.6738 25.0791C94.5384 26.4788 96.4183 27.7972 97.3135 29.0342C98.2087 30.2712 98.6562 32.0697 98.6562 34.4297C98.6562 37.0664 98.3145 39.0602 97.6309 40.4111C96.9473 41.7458 95.7998 42.7793 94.1885 43.5117C92.5934 44.2279 90.6647 44.5859 88.4023 44.5859C85.8958 44.5859 83.7474 44.1953 81.957 43.4141C80.1829 42.6328 78.9622 41.5749 78.2949 40.2402C77.6276 38.9056 77.2939 36.8874 77.2939 34.1855V32.623H86.0342V34.6738C86.0342 36.4154 86.14 37.5465 86.3516 38.0674C86.5794 38.5882 87.0189 38.8486 87.6699 38.8486C88.3698 38.8486 88.8581 38.6777 89.1348 38.3359C89.4115 37.9779 89.5498 37.2373 89.5498 36.1143C89.5498 34.568 89.3708 33.5996 89.0127 33.209C88.6383 32.8184 86.7259 31.6628 83.2754 29.7422C80.3783 28.1146 78.6123 26.6416 77.9775 25.3232C77.3428 23.9886 77.0254 22.4098 77.0254 20.5869C77.0254 17.999 77.3672 16.0947 78.0508 14.874C78.7344 13.637 79.89 12.6849 81.5176 12.0176C83.1615 11.3503 85.0658 11.0166 87.2305 11.0166C89.3789 11.0166 91.2018 11.2933 92.6992 11.8467C94.2129 12.3838 95.3685 13.0999 96.166 13.9951C96.9798 14.8903 97.4681 15.7204 97.6309 16.4854C97.8099 17.2503 97.8994 18.4466 97.8994 20.0742V21.9541Z"/>
</mask>
<path d="M97.8994 21.9541H89.1592V20.1963C89.1592 18.6989 89.0697 17.7549 88.8906 17.3643C88.7279 16.9574 88.3047 16.7539 87.6211 16.7539C87.0677 16.7539 86.6527 16.9411 86.376 17.3154C86.0993 17.6735 85.9609 18.2188 85.9609 18.9512C85.9609 19.944 86.026 20.6764 86.1562 21.1484C86.3027 21.6042 86.7178 22.1087 87.4014 22.6621C88.1012 23.2155 89.5254 24.0212 91.6738 25.0791C94.5384 26.4788 96.4183 27.7972 97.3135 29.0342C98.2087 30.2712 98.6562 32.0697 98.6562 34.4297C98.6562 37.0664 98.3145 39.0602 97.6309 40.4111C96.9473 41.7458 95.7998 42.7793 94.1885 43.5117C92.5934 44.2279 90.6647 44.5859 88.4023 44.5859C85.8958 44.5859 83.7474 44.1953 81.957 43.4141C80.1829 42.6328 78.9622 41.5749 78.2949 40.2402C77.6276 38.9056 77.2939 36.8874 77.2939 34.1855V32.623H86.0342V34.6738C86.0342 36.4154 86.14 37.5465 86.3516 38.0674C86.5794 38.5882 87.0189 38.8486 87.6699 38.8486C88.3698 38.8486 88.8581 38.6777 89.1348 38.3359C89.4115 37.9779 89.5498 37.2373 89.5498 36.1143C89.5498 34.568 89.3708 33.5996 89.0127 33.209C88.6383 32.8184 86.7259 31.6628 83.2754 29.7422C80.3783 28.1146 78.6123 26.6416 77.9775 25.3232C77.3428 23.9886 77.0254 22.4098 77.0254 20.5869C77.0254 17.999 77.3672 16.0947 78.0508 14.874C78.7344 13.637 79.89 12.6849 81.5176 12.0176C83.1615 11.3503 85.0658 11.0166 87.2305 11.0166C89.3789 11.0166 91.2018 11.2933 92.6992 11.8467C94.2129 12.3838 95.3685 13.0999 96.166 13.9951C96.9798 14.8903 97.4681 15.7204 97.6309 16.4854C97.8099 17.2503 97.8994 18.4466 97.8994 20.0742V21.9541Z" fill="white"/>
<path d="M97.8994 21.9541V22.9541H98.8994V21.9541H97.8994ZM89.1592 21.9541H88.1592V22.9541H89.1592V21.9541ZM88.8906 17.3643L87.9621 17.7356L87.9713 17.7585L87.9816 17.7809L88.8906 17.3643ZM86.376 17.3154L87.1673 17.9269L87.1738 17.9184L87.1802 17.9098L86.376 17.3154ZM86.1562 21.1484L85.1923 21.4144L85.1978 21.4345L85.2042 21.4544L86.1562 21.1484ZM87.4014 22.6621L86.7721 23.4394L86.7811 23.4465L87.4014 22.6621ZM91.6738 25.0791L91.2321 25.9762L91.2348 25.9776L91.6738 25.0791ZM97.3135 29.0342L98.1236 28.4479L97.3135 29.0342ZM97.6309 40.4111L98.5209 40.867L98.5231 40.8626L97.6309 40.4111ZM94.1885 43.5117L94.5981 44.424L94.6023 44.4221L94.1885 43.5117ZM81.957 43.4141L81.554 44.3293L81.5571 44.3306L81.957 43.4141ZM77.2939 32.623V31.623H76.2939V32.623H77.2939ZM86.0342 32.623H87.0342V31.623H86.0342V32.623ZM86.3516 38.0674L85.4251 38.4438L85.4301 38.456L85.4354 38.4682L86.3516 38.0674ZM89.1348 38.3359L89.912 38.9651L89.9191 38.9563L89.9261 38.9474L89.1348 38.3359ZM89.0127 33.209L89.7498 32.5333L89.7424 32.5251L89.7347 32.5171L89.0127 33.209ZM83.2754 29.7422L82.7856 30.614L82.789 30.616L83.2754 29.7422ZM77.9775 25.3232L77.0745 25.7528L77.0765 25.7571L77.9775 25.3232ZM78.0508 14.874L78.9233 15.3626L78.926 15.3577L78.0508 14.874ZM81.5176 12.0176L81.1414 11.091L81.1382 11.0923L81.5176 12.0176ZM92.6992 11.8467L92.3525 12.7848L92.3648 12.7891L92.6992 11.8467ZM96.166 13.9951L95.4193 14.6604L95.4261 14.6678L96.166 13.9951ZM97.6309 16.4854L96.6528 16.6935L96.6549 16.7034L96.6572 16.7132L97.6309 16.4854ZM97.8994 20.9541H89.1592V22.9541H97.8994V20.9541ZM90.1592 21.9541V20.1963H88.1592V21.9541H90.1592ZM90.1592 20.1963C90.1592 19.4318 90.1365 18.7867 90.0876 18.2708C90.0419 17.7889 89.9649 17.3082 89.7997 16.9476L87.9816 17.7809C87.9812 17.78 88.0017 17.8286 88.0278 17.9583C88.0524 18.0808 88.0762 18.2459 88.0965 18.4596C88.1371 18.8877 88.1592 19.4633 88.1592 20.1963H90.1592ZM89.8191 16.9929C89.4264 16.0111 88.4521 15.7539 87.6211 15.7539V17.7539C87.876 17.7539 87.9887 17.7937 88.0179 17.8077C88.0277 17.8125 88.0165 17.8087 87.9983 17.7898C87.9793 17.77 87.9675 17.7489 87.9621 17.7356L89.8191 16.9929ZM87.6211 15.7539C86.8182 15.7539 86.074 16.0416 85.5718 16.721L87.1802 17.9098C87.2314 17.8405 87.3172 17.7539 87.6211 17.7539V15.7539ZM85.5847 16.704C85.1116 17.3162 84.9609 18.124 84.9609 18.9512H86.9609C86.9609 18.3135 87.087 18.0308 87.1673 17.9269L85.5847 16.704ZM84.9609 18.9512C84.9609 19.9616 85.0245 20.8063 85.1923 21.4144L87.1202 20.8825C87.0276 20.5466 86.9609 19.9264 86.9609 18.9512H84.9609ZM85.2042 21.4544C85.442 22.1943 86.0461 22.8516 86.7722 23.4394L88.0306 21.8849C87.3894 21.3658 87.1635 21.0141 87.1083 20.8424L85.2042 21.4544ZM86.7811 23.4465C87.5757 24.0748 89.0919 24.9224 91.2321 25.9762L92.1156 24.182C89.9589 23.1199 88.6268 22.3562 88.0216 21.8777L86.7811 23.4465ZM91.2348 25.9776C94.0793 27.3675 95.7626 28.5969 96.5034 29.6204L98.1236 28.4479C97.074 26.9975 94.9975 25.5902 92.1129 24.1806L91.2348 25.9776ZM96.5034 29.6204C97.2243 30.6167 97.6562 32.1728 97.6562 34.4297H99.6562C99.6562 31.9666 99.193 29.9257 98.1236 28.4479L96.5034 29.6204ZM97.6562 34.4297C97.6562 37.0097 97.3169 38.8168 96.7386 39.9596L98.5231 40.8626C99.312 39.3036 99.6562 37.1231 99.6562 34.4297H97.6562ZM96.7408 39.9553C96.1779 41.0543 95.2191 41.9448 93.7747 42.6014L94.6023 44.4221C96.3805 43.6138 97.7166 42.4373 98.5209 40.867L96.7408 39.9553ZM93.7789 42.5994C92.3446 43.2434 90.5633 43.5859 88.4023 43.5859V45.5859C90.7661 45.5859 92.8423 45.2123 94.5981 44.424L93.7789 42.5994ZM88.4023 43.5859C85.996 43.5859 83.9909 43.2105 82.357 42.4975L81.5571 44.3306C83.5039 45.1801 85.7956 45.5859 88.4023 45.5859V43.5859ZM82.3601 42.4989C80.7345 41.7831 79.7246 40.8636 79.1893 39.793L77.4005 40.6874C78.1998 42.2861 79.6313 43.4826 81.554 44.3293L82.3601 42.4989ZM79.1893 39.793C78.6271 38.6685 78.2939 36.8386 78.2939 34.1855H76.2939C76.2939 36.9361 76.6281 39.1427 77.4005 40.6874L79.1893 39.793ZM78.2939 34.1855V32.623H76.2939V34.1855H78.2939ZM77.2939 33.623H86.0342V31.623H77.2939V33.623ZM85.0342 32.623V34.6738H87.0342V32.623H85.0342ZM85.0342 34.6738C85.0342 35.5612 85.061 36.3133 85.1179 36.9215C85.1726 37.5064 85.2616 38.0412 85.4251 38.4438L87.278 37.691C87.23 37.5727 87.1603 37.2816 87.1092 36.7353C87.0603 36.2123 87.0342 35.528 87.0342 34.6738H85.0342ZM85.4354 38.4682C85.6234 38.8979 85.9221 39.2646 86.3422 39.5136C86.7532 39.7572 87.2135 39.8486 87.6699 39.8486V37.8486C87.4753 37.8486 87.3903 37.8099 87.3619 37.793C87.3426 37.7816 87.3076 37.7577 87.2677 37.6666L85.4354 38.4682ZM87.6699 39.8486C88.4934 39.8486 89.3563 39.6516 89.912 38.9651L88.3575 37.7067C88.3553 37.7095 88.3309 37.7415 88.2307 37.7766C88.1228 37.8144 87.9444 37.8486 87.6699 37.8486V39.8486ZM89.9261 38.9474C90.2054 38.5859 90.3478 38.1306 90.429 37.6956C90.5136 37.2431 90.5498 36.7106 90.5498 36.1143H88.5498C88.5498 36.641 88.5169 37.0402 88.4631 37.3283C88.406 37.6339 88.3408 37.7279 88.3435 37.7245L89.9261 38.9474ZM90.5498 36.1143C90.5498 35.3104 90.5039 34.6144 90.3989 34.0465C90.3002 33.5125 90.1241 32.9415 89.7498 32.5333L88.2755 33.8847C88.2594 33.8671 88.3519 33.9756 88.4322 34.4101C88.5062 34.8105 88.5498 35.3719 88.5498 36.1143H90.5498ZM89.7347 32.5171C89.5584 32.3332 89.2853 32.1346 89.0037 31.9442C88.6979 31.7374 88.2997 31.4865 87.8148 31.1934C86.8435 30.6066 85.4908 29.8308 83.7617 28.8684L82.789 30.616C84.5105 31.5741 85.8392 32.3365 86.7804 32.9052C87.2517 33.19 87.6175 33.4212 87.8834 33.601C88.0164 33.6909 88.1179 33.7636 88.1917 33.8202C88.2718 33.8816 88.296 33.9064 88.2907 33.9009L89.7347 32.5171ZM83.7652 28.8704C82.3486 28.0745 81.239 27.3331 80.4186 26.6488C79.5893 25.9571 79.1086 25.3673 78.8785 24.8894L77.0765 25.7571C77.4812 26.5975 78.2009 27.4034 79.1375 28.1847C80.0831 28.9734 81.305 29.7822 82.7856 30.614L83.7652 28.8704ZM78.8806 24.8937C78.3228 23.7209 78.0254 22.2952 78.0254 20.5869H76.0254C76.0254 22.5245 76.3628 24.2563 77.0745 25.7527L78.8806 24.8937ZM78.0254 20.5869C78.0254 18.0473 78.3677 16.3547 78.9233 15.3626L77.1783 14.3854C76.3666 15.8348 76.0254 17.9507 76.0254 20.5869H78.0254ZM78.926 15.3577C79.4747 14.3649 80.4272 13.5454 81.8969 12.9428L81.1382 11.0923C79.3527 11.8244 77.9941 12.9091 77.1755 14.3903L78.926 15.3577ZM81.8937 12.9441C83.395 12.3347 85.1671 12.0166 87.2305 12.0166V10.0166C84.9644 10.0166 82.928 10.3658 81.1414 11.091L81.8937 12.9441ZM87.2305 12.0166C89.2989 12.0166 90.9972 12.2838 92.3526 12.7847L93.0459 10.9087C91.4065 10.3028 89.4589 10.0166 87.2305 10.0166V12.0166ZM92.3648 12.7891C93.7717 13.2883 94.7653 13.9262 95.4194 14.6603L96.9127 13.3299C95.9716 12.2737 94.6541 11.4793 93.0336 10.9043L92.3648 12.7891ZM95.4261 14.6678C96.1804 15.4975 96.5417 16.1716 96.6528 16.6935L98.609 16.2772C98.3945 15.2692 97.7792 14.2831 96.906 13.3224L95.4261 14.6678ZM96.6572 16.7132C96.8086 17.3601 96.8994 18.4599 96.8994 20.0742H98.8994C98.8994 18.4333 98.8112 17.1406 98.6045 16.2575L96.6572 16.7132ZM96.8994 20.0742V21.9541H98.8994V20.0742H96.8994Z" fill="#102821" mask="url(#path-4-inside-2_1212_47)"/>
<path d="M14 25.5H70" stroke="#102821" stroke-width="0.5" stroke-linecap="round"/>
<path d="M107 25.5H163" stroke="#102821" stroke-width="0.5" stroke-linecap="round"/>
</g>
<defs>
<clipPath id="clip0_1212_47">
<rect width="174" height="66" fill="white"/>
</clipPath>
</defs>
</svg>
