<svg width="133" height="53" viewBox="0 0 133 53" fill="none" xmlns="http://www.w3.org/2000/svg">
<g clip-path="url(#clip0_1238_52)">
<path d="M122.57 38.39C123.53 39.86 122.96 41.42 122.12 42.53C121.43 43.43 120.56 44.12 119.36 44.3C119.09 44.33 118.85 44.3 118.61 44.3C117.26 44.45 115.28 43.4 114.92 41.93C114.56 40.55 114.92 39.41 115.79 38.36C116.57 37.46 117.47 36.77 118.67 36.68C119.9 36.56 121.73 37.1 122.57 38.39Z" fill="#102821"/>
<path d="M26.7095 25.1587H18.8433V23.5767C18.8433 22.229 18.7627 21.3794 18.6016 21.0278C18.4551 20.6616 18.0742 20.4785 17.459 20.4785C16.9609 20.4785 16.5874 20.647 16.3384 20.9839C16.0894 21.3062 15.9648 21.7969 15.9648 22.4561C15.9648 23.3496 16.0234 24.0088 16.1406 24.4336C16.2725 24.8438 16.646 25.2979 17.2612 25.7959C17.8911 26.2939 19.1729 27.019 21.1064 27.9712C23.6846 29.231 25.3765 30.4175 26.1821 31.5308C26.9878 32.644 27.3906 34.2627 27.3906 36.3867C27.3906 38.7598 27.083 40.5542 26.4678 41.77C25.8525 42.9712 24.8198 43.9014 23.3696 44.5605C21.9341 45.2051 20.1982 45.5273 18.1621 45.5273C15.9062 45.5273 13.9727 45.1758 12.3613 44.4727C10.7646 43.7695 9.66602 42.8174 9.06543 41.6162C8.46484 40.415 8.16455 38.5986 8.16455 36.167V34.7607H16.0308V36.6064C16.0308 38.1738 16.126 39.1919 16.3164 39.6606C16.5215 40.1294 16.917 40.3638 17.5029 40.3638C18.1328 40.3638 18.5723 40.21 18.8213 39.9023C19.0703 39.5801 19.1948 38.9136 19.1948 37.9028C19.1948 36.5112 19.0337 35.6396 18.7114 35.2881C18.3745 34.9365 16.6533 33.8965 13.5479 32.168C10.9404 30.7031 9.35107 29.3774 8.77979 28.1909C8.2085 26.9897 7.92285 25.5688 7.92285 23.9282C7.92285 21.5991 8.23047 19.8853 8.8457 18.7866C9.46094 17.6733 10.501 16.8164 11.9658 16.2158C13.4453 15.6152 15.1592 15.3149 17.1074 15.3149C19.041 15.3149 20.6816 15.564 22.0293 16.062C23.3916 16.5454 24.4316 17.1899 25.1494 17.9956C25.8818 18.8013 26.3213 19.5483 26.4678 20.2368C26.6289 20.9253 26.7095 22.002 26.7095 23.4668V25.1587ZM49.8687 30.9375H38.377V37.2437C38.377 38.562 38.4722 39.4116 38.6626 39.7925C38.853 40.1733 39.2192 40.3638 39.7612 40.3638C40.4351 40.3638 40.8818 40.1147 41.1016 39.6167C41.3359 39.104 41.4531 38.1226 41.4531 36.6724V32.8271H49.8687V34.9805C49.8687 36.7822 49.7515 38.1665 49.5171 39.1333C49.2974 40.1001 48.77 41.1328 47.9351 42.2314C47.1001 43.3301 46.0381 44.1577 44.749 44.7144C43.4746 45.2563 41.8706 45.5273 39.937 45.5273C38.062 45.5273 36.4067 45.2563 34.9712 44.7144C33.5356 44.1724 32.415 43.4326 31.6094 42.4951C30.8184 41.543 30.269 40.5029 29.9614 39.375C29.6538 38.2324 29.5 36.5771 29.5 34.4092V25.9058C29.5 23.3569 29.8442 21.3501 30.5327 19.8853C31.2212 18.4058 32.3491 17.2778 33.9165 16.5015C35.4839 15.7104 37.2856 15.3149 39.3218 15.3149C41.812 15.3149 43.8628 15.791 45.4741 16.7432C47.1001 17.6807 48.2354 18.9331 48.8799 20.5005C49.5391 22.0532 49.8687 24.2432 49.8687 27.0703V30.9375ZM40.9697 26.1914V24.0601C40.9697 22.5513 40.8892 21.5771 40.728 21.1377C40.5669 20.6982 40.2373 20.4785 39.7393 20.4785C39.124 20.4785 38.7432 20.6689 38.5967 21.0498C38.4502 21.416 38.377 22.4194 38.377 24.0601V26.1914H40.9697ZM61.9316 9.42627V45H52.791V9.42627H61.9316ZM73.0718 27.1362H64.7441V25.1807C64.7441 22.9248 65.0005 21.189 65.5132 19.9731C66.0405 18.7427 67.0879 17.6587 68.6553 16.7212C70.2227 15.7837 72.2588 15.3149 74.7637 15.3149C77.7666 15.3149 80.0298 15.8496 81.5532 16.9189C83.0767 17.9736 83.9922 19.2773 84.2998 20.8301C84.6074 22.3682 84.7612 25.5469 84.7612 30.3662V45H76.126V42.4072C75.584 43.4473 74.8809 44.231 74.0166 44.7583C73.167 45.271 72.1489 45.5273 70.9624 45.5273C69.4097 45.5273 67.9814 45.0952 66.6777 44.231C65.3887 43.3521 64.7441 41.4404 64.7441 38.4961V36.1011C64.7441 33.9185 65.0884 32.4316 65.7769 31.6406C66.4653 30.8496 68.1719 29.9268 70.8965 28.8721C73.8115 27.7295 75.3716 26.9604 75.5767 26.5649C75.7817 26.1694 75.8843 25.3638 75.8843 24.1479C75.8843 22.6245 75.7671 21.6357 75.5327 21.1816C75.313 20.7129 74.9395 20.4785 74.4121 20.4785C73.8115 20.4785 73.438 20.6763 73.2915 21.0718C73.145 21.4526 73.0718 22.4561 73.0718 24.082V27.1362ZM75.8843 31.1353C74.4634 32.1753 73.6357 33.0469 73.4014 33.75C73.1816 34.4531 73.0718 35.4639 73.0718 36.7822C73.0718 38.291 73.167 39.2651 73.3574 39.7046C73.5625 40.144 73.958 40.3638 74.5439 40.3638C75.1006 40.3638 75.4595 40.1953 75.6206 39.8584C75.7964 39.5068 75.8843 38.5986 75.8843 37.1338V31.1353ZM96.6924 9.42627V17.4243C97.4541 16.7212 98.2744 16.1938 99.1533 15.8423C100.047 15.4907 100.999 15.3149 102.01 15.3149C103.562 15.3149 104.881 15.7104 105.965 16.5015C107.063 17.2925 107.73 18.208 107.964 19.248C108.213 20.2734 108.338 22.1558 108.338 24.895V45H99.4609V24.4775C99.4609 22.7783 99.373 21.687 99.1973 21.2036C99.0361 20.7202 98.6626 20.4785 98.0767 20.4785C97.5347 20.4785 97.1685 20.7275 96.978 21.2256C96.7876 21.7236 96.6924 22.7124 96.6924 24.1919V45H87.8154V9.42627H96.6924Z" fill="#102821"/>
<mask id="path-3-outside-1_1238_52" maskUnits="userSpaceOnUse" x="10" y="8" width="104" height="39" fill="black">
<rect fill="white" x="10" y="8" width="104" height="39"/>
<path d="M30.7095 25.1587H22.8433V23.5767C22.8433 22.229 22.7627 21.3794 22.6016 21.0278C22.4551 20.6616 22.0742 20.4785 21.459 20.4785C20.9609 20.4785 20.5874 20.647 20.3384 20.9839C20.0894 21.3062 19.9648 21.7969 19.9648 22.4561C19.9648 23.3496 20.0234 24.0088 20.1406 24.4336C20.2725 24.8438 20.646 25.2979 21.2612 25.7959C21.8911 26.2939 23.1729 27.019 25.1064 27.9712C27.6846 29.231 29.3765 30.4175 30.1821 31.5308C30.9878 32.644 31.3906 34.2627 31.3906 36.3867C31.3906 38.7598 31.083 40.5542 30.4678 41.77C29.8525 42.9712 28.8198 43.9014 27.3696 44.5605C25.9341 45.2051 24.1982 45.5273 22.1621 45.5273C19.9062 45.5273 17.9727 45.1758 16.3613 44.4727C14.7646 43.7695 13.666 42.8174 13.0654 41.6162C12.4648 40.415 12.1646 38.5986 12.1646 36.167V34.7607H20.0308V36.6064C20.0308 38.1738 20.126 39.1919 20.3164 39.6606C20.5215 40.1294 20.917 40.3638 21.5029 40.3638C22.1328 40.3638 22.5723 40.21 22.8213 39.9023C23.0703 39.5801 23.1948 38.9136 23.1948 37.9028C23.1948 36.5112 23.0337 35.6396 22.7114 35.2881C22.3745 34.9365 20.6533 33.8965 17.5479 32.168C14.9404 30.7031 13.3511 29.3774 12.7798 28.1909C12.2085 26.9897 11.9229 25.5688 11.9229 23.9282C11.9229 21.5991 12.2305 19.8853 12.8457 18.7866C13.4609 17.6733 14.501 16.8164 15.9658 16.2158C17.4453 15.6152 19.1592 15.3149 21.1074 15.3149C23.041 15.3149 24.6816 15.564 26.0293 16.062C27.3916 16.5454 28.4316 17.1899 29.1494 17.9956C29.8818 18.8013 30.3213 19.5483 30.4678 20.2368C30.6289 20.9253 30.7095 22.002 30.7095 23.4668V25.1587ZM53.8687 30.9375H42.377V37.2437C42.377 38.562 42.4722 39.4116 42.6626 39.7925C42.853 40.1733 43.2192 40.3638 43.7612 40.3638C44.4351 40.3638 44.8818 40.1147 45.1016 39.6167C45.3359 39.104 45.4531 38.1226 45.4531 36.6724V32.8271H53.8687V34.9805C53.8687 36.7822 53.7515 38.1665 53.5171 39.1333C53.2974 40.1001 52.77 41.1328 51.9351 42.2314C51.1001 43.3301 50.0381 44.1577 48.749 44.7144C47.4746 45.2563 45.8706 45.5273 43.937 45.5273C42.062 45.5273 40.4067 45.2563 38.9712 44.7144C37.5356 44.1724 36.415 43.4326 35.6094 42.4951C34.8184 41.543 34.269 40.5029 33.9614 39.375C33.6538 38.2324 33.5 36.5771 33.5 34.4092V25.9058C33.5 23.3569 33.8442 21.3501 34.5327 19.8853C35.2212 18.4058 36.3491 17.2778 37.9165 16.5015C39.4839 15.7104 41.2856 15.3149 43.3218 15.3149C45.812 15.3149 47.8628 15.791 49.4741 16.7432C51.1001 17.6807 52.2354 18.9331 52.8799 20.5005C53.5391 22.0532 53.8687 24.2432 53.8687 27.0703V30.9375ZM44.9697 26.1914V24.0601C44.9697 22.5513 44.8892 21.5771 44.728 21.1377C44.5669 20.6982 44.2373 20.4785 43.7393 20.4785C43.124 20.4785 42.7432 20.6689 42.5967 21.0498C42.4502 21.416 42.377 22.4194 42.377 24.0601V26.1914H44.9697ZM65.9316 9.42627V45H56.791V9.42627H65.9316ZM77.0718 27.1362H68.7441V25.1807C68.7441 22.9248 69.0005 21.189 69.5132 19.9731C70.0405 18.7427 71.0879 17.6587 72.6553 16.7212C74.2227 15.7837 76.2588 15.3149 78.7637 15.3149C81.7666 15.3149 84.0298 15.8496 85.5532 16.9189C87.0767 17.9736 87.9922 19.2773 88.2998 20.8301C88.6074 22.3682 88.7612 25.5469 88.7612 30.3662V45H80.126V42.4072C79.584 43.4473 78.8809 44.231 78.0166 44.7583C77.167 45.271 76.1489 45.5273 74.9624 45.5273C73.4097 45.5273 71.9814 45.0952 70.6777 44.231C69.3887 43.3521 68.7441 41.4404 68.7441 38.4961V36.1011C68.7441 33.9185 69.0884 32.4316 69.7769 31.6406C70.4653 30.8496 72.1719 29.9268 74.8965 28.8721C77.8115 27.7295 79.3716 26.9604 79.5767 26.5649C79.7817 26.1694 79.8843 25.3638 79.8843 24.1479C79.8843 22.6245 79.7671 21.6357 79.5327 21.1816C79.313 20.7129 78.9395 20.4785 78.4121 20.4785C77.8115 20.4785 77.438 20.6763 77.2915 21.0718C77.145 21.4526 77.0718 22.4561 77.0718 24.082V27.1362ZM79.8843 31.1353C78.4634 32.1753 77.6357 33.0469 77.4014 33.75C77.1816 34.4531 77.0718 35.4639 77.0718 36.7822C77.0718 38.291 77.167 39.2651 77.3574 39.7046C77.5625 40.144 77.958 40.3638 78.5439 40.3638C79.1006 40.3638 79.4595 40.1953 79.6206 39.8584C79.7964 39.5068 79.8843 38.5986 79.8843 37.1338V31.1353ZM100.692 9.42627V17.4243C101.454 16.7212 102.274 16.1938 103.153 15.8423C104.047 15.4907 104.999 15.3149 106.01 15.3149C107.562 15.3149 108.881 15.7104 109.965 16.5015C111.063 17.2925 111.73 18.208 111.964 19.248C112.213 20.2734 112.338 22.1558 112.338 24.895V45H103.461V24.4775C103.461 22.7783 103.373 21.687 103.197 21.2036C103.036 20.7202 102.663 20.4785 102.077 20.4785C101.535 20.4785 101.168 20.7275 100.978 21.2256C100.788 21.7236 100.692 22.7124 100.692 24.1919V45H91.8154V9.42627H100.692Z"/>
</mask>
<path d="M30.7095 25.1587H22.8433V23.5767C22.8433 22.229 22.7627 21.3794 22.6016 21.0278C22.4551 20.6616 22.0742 20.4785 21.459 20.4785C20.9609 20.4785 20.5874 20.647 20.3384 20.9839C20.0894 21.3062 19.9648 21.7969 19.9648 22.4561C19.9648 23.3496 20.0234 24.0088 20.1406 24.4336C20.2725 24.8438 20.646 25.2979 21.2612 25.7959C21.8911 26.2939 23.1729 27.019 25.1064 27.9712C27.6846 29.231 29.3765 30.4175 30.1821 31.5308C30.9878 32.644 31.3906 34.2627 31.3906 36.3867C31.3906 38.7598 31.083 40.5542 30.4678 41.77C29.8525 42.9712 28.8198 43.9014 27.3696 44.5605C25.9341 45.2051 24.1982 45.5273 22.1621 45.5273C19.9062 45.5273 17.9727 45.1758 16.3613 44.4727C14.7646 43.7695 13.666 42.8174 13.0654 41.6162C12.4648 40.415 12.1646 38.5986 12.1646 36.167V34.7607H20.0308V36.6064C20.0308 38.1738 20.126 39.1919 20.3164 39.6606C20.5215 40.1294 20.917 40.3638 21.5029 40.3638C22.1328 40.3638 22.5723 40.21 22.8213 39.9023C23.0703 39.5801 23.1948 38.9136 23.1948 37.9028C23.1948 36.5112 23.0337 35.6396 22.7114 35.2881C22.3745 34.9365 20.6533 33.8965 17.5479 32.168C14.9404 30.7031 13.3511 29.3774 12.7798 28.1909C12.2085 26.9897 11.9229 25.5688 11.9229 23.9282C11.9229 21.5991 12.2305 19.8853 12.8457 18.7866C13.4609 17.6733 14.501 16.8164 15.9658 16.2158C17.4453 15.6152 19.1592 15.3149 21.1074 15.3149C23.041 15.3149 24.6816 15.564 26.0293 16.062C27.3916 16.5454 28.4316 17.1899 29.1494 17.9956C29.8818 18.8013 30.3213 19.5483 30.4678 20.2368C30.6289 20.9253 30.7095 22.002 30.7095 23.4668V25.1587ZM53.8687 30.9375H42.377V37.2437C42.377 38.562 42.4722 39.4116 42.6626 39.7925C42.853 40.1733 43.2192 40.3638 43.7612 40.3638C44.4351 40.3638 44.8818 40.1147 45.1016 39.6167C45.3359 39.104 45.4531 38.1226 45.4531 36.6724V32.8271H53.8687V34.9805C53.8687 36.7822 53.7515 38.1665 53.5171 39.1333C53.2974 40.1001 52.77 41.1328 51.9351 42.2314C51.1001 43.3301 50.0381 44.1577 48.749 44.7144C47.4746 45.2563 45.8706 45.5273 43.937 45.5273C42.062 45.5273 40.4067 45.2563 38.9712 44.7144C37.5356 44.1724 36.415 43.4326 35.6094 42.4951C34.8184 41.543 34.269 40.5029 33.9614 39.375C33.6538 38.2324 33.5 36.5771 33.5 34.4092V25.9058C33.5 23.3569 33.8442 21.3501 34.5327 19.8853C35.2212 18.4058 36.3491 17.2778 37.9165 16.5015C39.4839 15.7104 41.2856 15.3149 43.3218 15.3149C45.812 15.3149 47.8628 15.791 49.4741 16.7432C51.1001 17.6807 52.2354 18.9331 52.8799 20.5005C53.5391 22.0532 53.8687 24.2432 53.8687 27.0703V30.9375ZM44.9697 26.1914V24.0601C44.9697 22.5513 44.8892 21.5771 44.728 21.1377C44.5669 20.6982 44.2373 20.4785 43.7393 20.4785C43.124 20.4785 42.7432 20.6689 42.5967 21.0498C42.4502 21.416 42.377 22.4194 42.377 24.0601V26.1914H44.9697ZM65.9316 9.42627V45H56.791V9.42627H65.9316ZM77.0718 27.1362H68.7441V25.1807C68.7441 22.9248 69.0005 21.189 69.5132 19.9731C70.0405 18.7427 71.0879 17.6587 72.6553 16.7212C74.2227 15.7837 76.2588 15.3149 78.7637 15.3149C81.7666 15.3149 84.0298 15.8496 85.5532 16.9189C87.0767 17.9736 87.9922 19.2773 88.2998 20.8301C88.6074 22.3682 88.7612 25.5469 88.7612 30.3662V45H80.126V42.4072C79.584 43.4473 78.8809 44.231 78.0166 44.7583C77.167 45.271 76.1489 45.5273 74.9624 45.5273C73.4097 45.5273 71.9814 45.0952 70.6777 44.231C69.3887 43.3521 68.7441 41.4404 68.7441 38.4961V36.1011C68.7441 33.9185 69.0884 32.4316 69.7769 31.6406C70.4653 30.8496 72.1719 29.9268 74.8965 28.8721C77.8115 27.7295 79.3716 26.9604 79.5767 26.5649C79.7817 26.1694 79.8843 25.3638 79.8843 24.1479C79.8843 22.6245 79.7671 21.6357 79.5327 21.1816C79.313 20.7129 78.9395 20.4785 78.4121 20.4785C77.8115 20.4785 77.438 20.6763 77.2915 21.0718C77.145 21.4526 77.0718 22.4561 77.0718 24.082V27.1362ZM79.8843 31.1353C78.4634 32.1753 77.6357 33.0469 77.4014 33.75C77.1816 34.4531 77.0718 35.4639 77.0718 36.7822C77.0718 38.291 77.167 39.2651 77.3574 39.7046C77.5625 40.144 77.958 40.3638 78.5439 40.3638C79.1006 40.3638 79.4595 40.1953 79.6206 39.8584C79.7964 39.5068 79.8843 38.5986 79.8843 37.1338V31.1353ZM100.692 9.42627V17.4243C101.454 16.7212 102.274 16.1938 103.153 15.8423C104.047 15.4907 104.999 15.3149 106.01 15.3149C107.562 15.3149 108.881 15.7104 109.965 16.5015C111.063 17.2925 111.73 18.208 111.964 19.248C112.213 20.2734 112.338 22.1558 112.338 24.895V45H103.461V24.4775C103.461 22.7783 103.373 21.687 103.197 21.2036C103.036 20.7202 102.663 20.4785 102.077 20.4785C101.535 20.4785 101.168 20.7275 100.978 21.2256C100.788 21.7236 100.692 22.7124 100.692 24.1919V45H91.8154V9.42627H100.692Z" fill="white"/>
<path d="M30.7095 25.1587V26.1587H31.7095V25.1587H30.7095ZM22.8433 25.1587H21.8433V26.1587H22.8433V25.1587ZM22.6016 21.0278L21.6731 21.3992L21.6822 21.4221L21.6925 21.4445L22.6016 21.0278ZM20.3384 20.9839L21.1297 21.5953L21.1362 21.5869L21.1426 21.5783L20.3384 20.9839ZM20.1406 24.4336L19.1766 24.6995L19.1822 24.7197L19.1886 24.7396L20.1406 24.4336ZM21.2612 25.7959L20.632 26.5732L20.641 26.5803L21.2612 25.7959ZM25.1064 27.9712L24.6647 28.8683L24.6674 28.8697L25.1064 27.9712ZM30.4678 41.77L31.3578 42.2259L31.36 42.2215L30.4678 41.77ZM27.3696 44.5605L27.7792 45.4728L27.7834 45.4709L27.3696 44.5605ZM16.3613 44.4727L15.9583 45.3879L15.9614 45.3892L16.3613 44.4727ZM12.1646 34.7607V33.7607H11.1646V34.7607H12.1646ZM20.0308 34.7607H21.0308V33.7607H20.0308V34.7607ZM20.3164 39.6606L19.3899 40.037L19.3949 40.0493L19.4002 40.0615L20.3164 39.6606ZM22.8213 39.9023L23.5985 40.5315L23.6057 40.5227L23.6126 40.5138L22.8213 39.9023ZM22.7114 35.2881L23.4486 34.6124L23.4411 34.6042L23.4334 34.5962L22.7114 35.2881ZM17.5479 32.168L17.0581 33.0398L17.0615 33.0417L17.5479 32.168ZM12.7798 28.1909L11.8767 28.6204L11.8788 28.6247L12.7798 28.1909ZM12.8457 18.7866L13.7182 19.2752L13.7209 19.2703L12.8457 18.7866ZM15.9658 16.2158L15.5897 15.2892L15.5865 15.2906L15.9658 16.2158ZM26.0293 16.062L25.6826 17.0001L25.6949 17.0044L26.0293 16.062ZM29.1494 17.9956L28.4027 18.6608L28.4095 18.6683L29.1494 17.9956ZM30.4678 20.2368L29.4897 20.4449L29.4918 20.4548L29.4941 20.4647L30.4678 20.2368ZM30.7095 24.1587H22.8433V26.1587H30.7095V24.1587ZM23.8433 25.1587V23.5767H21.8433V25.1587H23.8433ZM23.8433 23.5767C23.8433 22.8871 23.8228 22.303 23.7784 21.8343C23.7372 21.3996 23.6669 20.9522 23.5106 20.6112L21.6925 21.4445C21.6876 21.4338 21.7042 21.4692 21.727 21.5822C21.7483 21.688 21.7693 21.8329 21.7873 22.0231C21.8234 22.404 21.8433 22.9186 21.8433 23.5767H23.8433ZM23.53 20.6564C23.1536 19.7154 22.2216 19.4785 21.459 19.4785V21.4785C21.5646 21.4785 21.6419 21.4865 21.6957 21.4964C21.7494 21.5063 21.7717 21.5166 21.7728 21.5171C21.7729 21.5172 21.7677 21.5147 21.7588 21.5084C21.7499 21.502 21.7385 21.4927 21.7264 21.48C21.7 21.4526 21.6825 21.4227 21.6731 21.3992L23.53 20.6564ZM21.459 19.4785C20.7114 19.4785 20.0087 19.7475 19.5342 20.3895L21.1426 21.5783C21.1661 21.5464 21.2105 21.4785 21.459 21.4785V19.4785ZM19.5471 20.3724C19.1017 20.9488 18.9648 21.7022 18.9648 22.4561H20.9648C20.9648 21.8916 21.077 21.6635 21.1297 21.5953L19.5471 20.3724ZM18.9648 22.4561C18.9648 23.3672 19.0219 24.1386 19.1766 24.6995L21.1046 24.1677C21.025 23.8789 20.9648 23.332 20.9648 22.4561H18.9648ZM19.1886 24.7396C19.4117 25.4338 19.9744 26.0407 20.632 26.5731L21.8904 25.0187C21.3176 24.555 21.1332 24.2537 21.0927 24.1276L19.1886 24.7396ZM20.641 26.5803C21.3655 27.1532 22.7394 27.9203 24.6647 28.8683L25.5482 27.0741C23.6063 26.1178 22.4167 25.4347 21.8815 25.0115L20.641 26.5803ZM24.6674 28.8697C27.2255 30.1196 28.7208 31.2172 29.372 32.117L30.9922 30.9445C30.0321 29.6178 28.1437 28.3423 25.5455 27.0727L24.6674 28.8697ZM29.372 32.117C30.0034 32.9895 30.3906 34.3658 30.3906 36.3867H32.3906C32.3906 34.1596 31.9722 32.2985 30.9922 30.9445L29.372 32.117ZM30.3906 36.3867C30.3906 38.7031 30.0854 40.3108 29.5755 41.3185L31.36 42.2215C32.0806 40.7976 32.3906 38.8164 32.3906 36.3867H30.3906ZM29.5777 41.3141C29.0832 42.2797 28.2391 43.0669 26.9558 43.6502L27.7834 45.4709C29.4005 44.7359 30.6219 43.6627 31.3578 42.2259L29.5777 41.3141ZM26.96 43.6483C25.6852 44.2206 24.0969 44.5273 22.1621 44.5273V46.5273C24.2996 46.5273 26.1829 46.1895 27.7792 45.4728L26.96 43.6483ZM22.1621 44.5273C20.0065 44.5273 18.2162 44.191 16.7613 43.5561L15.9614 45.3892C17.7292 46.1606 19.806 46.5273 22.1621 46.5273V44.5273ZM16.7643 43.5575C15.3163 42.9198 14.4284 42.1061 13.9599 41.169L12.171 42.0634C12.9036 43.5287 14.213 44.6193 15.9583 45.3878L16.7643 43.5575ZM13.9599 41.169C13.4643 40.1779 13.1646 38.5499 13.1646 36.167H11.1646C11.1646 38.6474 11.4654 40.6521 12.171 42.0634L13.9599 41.169ZM13.1646 36.167V34.7607H11.1646V36.167H13.1646ZM12.1646 35.7607H20.0308V33.7607H12.1646V35.7607ZM19.0308 34.7607V36.6064H21.0308V34.7607H19.0308ZM19.0308 36.6064C19.0308 37.4067 19.0549 38.087 19.1065 38.6387C19.1559 39.167 19.237 39.6605 19.3899 40.037L21.2429 39.2843C21.2054 39.192 21.1436 38.9422 21.0978 38.4524C21.0542 37.986 21.0308 37.3735 21.0308 36.6064H19.0308ZM19.4002 40.0615C19.5768 40.4651 19.8589 40.8123 20.257 41.0483C20.6461 41.2788 21.079 41.3638 21.5029 41.3638V39.3638C21.3409 39.3638 21.2831 39.3315 21.2766 39.3277C21.2729 39.3255 21.2704 39.3236 21.2663 39.3188C21.2615 39.3132 21.2486 39.2964 21.2326 39.2598L19.4002 40.0615ZM21.5029 41.3638C22.2565 41.3638 23.0705 41.1839 23.5985 40.5315L22.044 39.2731C22.0741 39.2361 22.0092 39.3638 21.5029 39.3638V41.3638ZM23.6126 40.5138C23.8781 40.1702 24.0101 39.7424 24.0844 39.3444C24.162 38.9289 24.1948 38.443 24.1948 37.9028H22.1948C22.1948 38.3734 22.1653 38.7261 22.1184 38.9771C22.0683 39.2456 22.0135 39.3122 22.03 39.2909L23.6126 40.5138ZM24.1948 37.9028C24.1948 37.1763 24.1534 36.5432 24.0573 36.0237C23.9676 35.5381 23.8049 35.0011 23.4486 34.6124L21.9743 35.9638C21.9402 35.9266 22.0193 36.0012 22.0906 36.3872C22.1557 36.7393 22.1948 37.2378 22.1948 37.9028H24.1948ZM23.4334 34.5962C23.2665 34.422 23.0124 34.238 22.7593 34.0669C22.4821 33.8795 22.1222 33.6527 21.685 33.3885C20.8094 32.8594 19.5908 32.1606 18.0342 31.2942L17.0615 33.0417C18.6104 33.9039 19.8051 34.5893 20.6507 35.1003C21.0741 35.3561 21.4018 35.5633 21.6391 35.7237C21.7577 35.804 21.8473 35.8682 21.9117 35.9175C21.9823 35.9717 21.9994 35.9904 21.9894 35.98L23.4334 34.5962ZM18.0376 31.2961C16.7659 30.5817 15.7729 29.9178 15.0408 29.3071C14.2998 28.6891 13.8791 28.1691 13.6808 27.7571L11.8788 28.6247C12.2517 29.3993 12.9114 30.1354 13.7597 30.843C14.617 31.5581 15.7223 32.2894 17.0581 33.0398L18.0376 31.2961ZM13.6828 27.7614C13.1885 26.722 12.9229 25.4542 12.9229 23.9282H10.9229C10.9229 25.6835 11.2285 27.2575 11.8767 28.6204L13.6828 27.7614ZM12.9229 23.9282C12.9229 21.6474 13.231 20.1452 13.7182 19.2752L11.9732 18.298C11.2299 19.6253 10.9229 21.5508 10.9229 23.9282H12.9229ZM13.7209 19.2703C14.2012 18.4012 15.0382 17.6769 16.3452 17.1411L15.5865 15.2906C13.9637 15.9559 12.7207 16.9454 11.9705 18.3029L13.7209 19.2703ZM16.342 17.1424C17.6788 16.5997 19.2605 16.3149 21.1074 16.3149V14.3149C19.0578 14.3149 17.2118 14.6308 15.5897 15.2893L16.342 17.1424ZM21.1074 16.3149C22.961 16.3149 24.477 16.5544 25.6826 17L26.3759 15.124C24.8863 14.5735 23.121 14.3149 21.1074 14.3149V16.3149ZM25.6949 17.0044C26.9504 17.4499 27.8285 18.0162 28.4028 18.6608L29.8961 17.3304C29.0348 16.3637 27.8328 15.6409 26.3637 15.1196L25.6949 17.0044ZM28.4095 18.6683C29.0824 19.4085 29.3949 19.9996 29.4897 20.4449L31.4459 20.0287C31.2477 19.0971 30.6813 18.194 29.8894 17.3229L28.4095 18.6683ZM29.4941 20.4647C29.6276 21.035 29.7095 22.0152 29.7095 23.4668H31.7095C31.7095 21.9887 31.6302 20.8155 31.4415 20.0089L29.4941 20.4647ZM29.7095 23.4668V25.1587H31.7095V23.4668H29.7095ZM53.8687 30.9375V31.9375H54.8687V30.9375H53.8687ZM42.377 30.9375V29.9375H41.377V30.9375H42.377ZM45.1016 39.6167L44.192 39.2009L44.1866 39.2131L45.1016 39.6167ZM45.4531 32.8271V31.8271H44.4531V32.8271H45.4531ZM53.8687 32.8271H54.8687V31.8271H53.8687V32.8271ZM53.5171 39.1333L52.5452 38.8977L52.5435 38.9047L52.542 38.9117L53.5171 39.1333ZM48.749 44.7144L49.1404 45.6346L49.1455 45.6324L48.749 44.7144ZM35.6094 42.4951L34.8402 43.1341L34.8455 43.1406L34.851 43.1469L35.6094 42.4951ZM33.9614 39.375L32.9958 39.635L32.9967 39.6381L33.9614 39.375ZM34.5327 19.8853L35.4377 20.3106L35.4394 20.3072L34.5327 19.8853ZM37.9165 16.5015L38.3604 17.3976L38.3671 17.3942L37.9165 16.5015ZM49.4741 16.7432L48.9654 17.6041L48.9746 17.6095L49.4741 16.7432ZM52.8799 20.5005L51.955 20.8808L51.9594 20.8913L52.8799 20.5005ZM44.9697 26.1914V27.1914H45.9697V26.1914H44.9697ZM42.5967 21.0498L43.5252 21.4212L43.53 21.4088L42.5967 21.0498ZM42.377 26.1914H41.377V27.1914H42.377V26.1914ZM53.8687 29.9375H42.377V31.9375H53.8687V29.9375ZM41.377 30.9375V37.2437H43.377V30.9375H41.377ZM41.377 37.2437C41.377 37.9224 41.4013 38.5051 41.4546 38.981C41.5048 39.4293 41.5903 39.884 41.7682 40.2397L43.557 39.3453C43.557 39.3453 43.5373 39.3031 43.5117 39.1928C43.4873 39.0874 43.463 38.9446 43.4421 38.7583C43.4003 38.3846 43.377 37.8832 43.377 37.2437H41.377ZM41.7682 40.2397C42.1767 41.0568 42.9634 41.3638 43.7612 41.3638V39.3638C43.6024 39.3638 43.5445 39.3353 43.5414 39.3337C43.541 39.3335 43.5473 39.337 43.5546 39.3446C43.5617 39.3518 43.5616 39.3545 43.557 39.3453L41.7682 40.2397ZM43.7612 41.3638C44.2162 41.3638 44.6764 41.2802 45.0885 41.0505C45.5145 40.813 45.8248 40.4547 46.0165 40.0203L44.1866 39.2131C44.1586 39.2767 44.1356 39.2919 44.1148 39.3035C44.0802 39.3228 43.9801 39.3638 43.7612 39.3638V41.3638ZM46.011 40.0325C46.1919 39.6367 46.2951 39.1431 46.3582 38.6147C46.4231 38.0711 46.4531 37.4206 46.4531 36.6724H44.4531C44.4531 37.3743 44.4246 37.9397 44.3723 38.3775C44.3182 38.8305 44.2456 39.084 44.1921 39.2009L46.011 40.0325ZM46.4531 36.6724V32.8271H44.4531V36.6724H46.4531ZM45.4531 33.8271H53.8687V31.8271H45.4531V33.8271ZM52.8687 32.8271V34.9805H54.8687V32.8271H52.8687ZM52.8687 34.9805C52.8687 36.7558 52.7516 38.0465 52.5452 38.8977L54.4889 39.3689C54.7513 38.2865 54.8687 36.8087 54.8687 34.9805H52.8687ZM52.542 38.9117C52.3637 39.6961 51.9192 40.5997 51.1389 41.6264L52.7312 42.8365C53.6209 41.666 54.231 40.5041 54.4922 39.3549L52.542 38.9117ZM51.1389 41.6264C50.4099 42.5855 49.4866 43.3066 48.3526 43.7963L49.1455 45.6324C50.5896 45.0088 51.7903 44.0746 52.7312 42.8365L51.1389 41.6264ZM48.3577 43.7941C47.2457 44.267 45.7857 44.5273 43.937 44.5273V46.5273C45.9555 46.5273 47.7035 46.2457 49.1404 45.6346L48.3577 43.7941ZM43.937 44.5273C42.1567 44.5273 40.6251 44.2699 39.3244 43.7788L38.618 45.6499C40.1884 46.2428 41.9673 46.5273 43.937 46.5273V44.5273ZM39.3244 43.7788C38.0083 43.2819 37.041 42.6267 36.3678 41.8434L34.851 43.1469C35.7891 44.2386 37.063 45.0628 38.618 45.6499L39.3244 43.7788ZM36.3786 41.8561C35.6734 41.0073 35.194 40.0939 34.9262 39.1119L32.9967 39.6381C33.3441 40.9119 33.9633 42.0787 34.8402 43.1341L36.3786 41.8561ZM34.927 39.115C34.6538 38.1002 34.5 36.5493 34.5 34.4092H32.5C32.5 36.605 32.6538 38.3646 32.9958 39.635L34.927 39.115ZM34.5 34.4092V25.9058H32.5V34.4092H34.5ZM34.5 25.9058C34.5 23.4284 34.8375 21.5877 35.4377 20.3106L33.6277 19.4599C32.851 21.1125 32.5 23.2855 32.5 25.9058H34.5ZM35.4394 20.3072C36.0248 19.0491 36.981 18.0808 38.3604 17.3976L37.4726 15.6054C35.7173 16.4748 34.4176 17.7625 33.6261 19.4634L35.4394 20.3072ZM38.3671 17.3942C39.774 16.6842 41.4171 16.3149 43.3218 16.3149V14.3149C41.1542 14.3149 39.1938 14.7367 37.466 15.6087L38.3671 17.3942ZM43.3218 16.3149C45.6904 16.3149 47.551 16.7683 48.9654 17.6041L49.9829 15.8822C48.1746 14.8137 45.9336 14.3149 43.3218 14.3149V16.3149ZM48.9746 17.6095C50.4307 18.449 51.4037 19.5401 51.955 20.8808L53.8047 20.1202C53.067 18.3261 51.7695 16.9123 49.9736 15.8768L48.9746 17.6095ZM51.9594 20.8913C52.5423 22.2642 52.8687 24.2988 52.8687 27.0703H54.8687C54.8687 24.1876 54.5359 21.8422 53.8004 20.1097L51.9594 20.8913ZM52.8687 27.0703V30.9375H54.8687V27.0703H52.8687ZM45.9697 26.1914V24.0601H43.9697V26.1914H45.9697ZM45.9697 24.0601C45.9697 23.2912 45.9493 22.6404 45.9059 22.1155C45.8644 21.614 45.7965 21.147 45.6669 20.7934L43.7892 21.4819C43.8206 21.5678 43.8736 21.8076 43.9127 22.2803C43.9499 22.7295 43.9697 23.3201 43.9697 24.0601H45.9697ZM45.6669 20.7934C45.527 20.4118 45.2865 20.0591 44.9147 19.8113C44.5479 19.5667 44.1349 19.4785 43.7393 19.4785V21.4785C43.7909 21.4785 43.8172 21.4843 43.8246 21.4862C43.8306 21.4878 43.8213 21.486 43.8053 21.4754C43.7978 21.4704 43.7909 21.4648 43.7849 21.459C43.7789 21.4533 43.7752 21.4488 43.7735 21.4464C43.7699 21.4417 43.7775 21.4502 43.7892 21.4819L45.6669 20.7934ZM43.7393 19.4785C42.9555 19.4785 42.0303 19.7368 41.6633 20.6908L43.53 21.4088C43.5235 21.4256 43.5094 21.4521 43.4853 21.4781C43.4617 21.5037 43.442 21.5145 43.4394 21.5158C43.4387 21.5161 43.4585 21.5062 43.5096 21.4964C43.5607 21.4866 43.6356 21.4785 43.7393 21.4785V19.4785ZM41.6682 20.6784C41.5303 21.0231 41.4706 21.5108 41.4345 22.0042C41.3954 22.5404 41.377 23.2285 41.377 24.0601H43.377C43.377 23.251 43.3951 22.6171 43.4292 22.1498C43.4463 21.9161 43.4665 21.7357 43.4879 21.6023C43.5111 21.4581 43.5291 21.4113 43.5252 21.4212L41.6682 20.6784ZM41.377 24.0601V26.1914H43.377V24.0601H41.377ZM42.377 27.1914H44.9697V25.1914H42.377V27.1914ZM65.9316 9.42627H66.9316V8.42627H65.9316V9.42627ZM65.9316 45V46H66.9316V45H65.9316ZM56.791 45H55.791V46H56.791V45ZM56.791 9.42627V8.42627H55.791V9.42627H56.791ZM64.9316 9.42627V45H66.9316V9.42627H64.9316ZM65.9316 44H56.791V46H65.9316V44ZM57.791 45V9.42627H55.791V45H57.791ZM56.791 10.4263H65.9316V8.42627H56.791V10.4263ZM77.0718 27.1362V28.1362H78.0718V27.1362H77.0718ZM68.7441 27.1362H67.7441V28.1362H68.7441V27.1362ZM69.5132 19.9731L68.594 19.5792L68.5918 19.5846L69.5132 19.9731ZM85.5532 16.9189L84.9787 17.7375L84.984 17.7411L85.5532 16.9189ZM88.2998 20.8301L87.3189 21.0244L87.3192 21.0262L88.2998 20.8301ZM88.7612 45V46H89.7612V45H88.7612ZM80.126 45H79.126V46H80.126V45ZM80.126 42.4072H81.126L79.2392 41.9451L80.126 42.4072ZM78.0166 44.7583L78.5333 45.6145L78.5375 45.6119L78.0166 44.7583ZM70.6777 44.231L70.1143 45.0573L70.1252 45.0644L70.6777 44.231ZM74.8965 28.8721L75.2575 29.8046L75.2614 29.8031L74.8965 28.8721ZM79.5327 21.1816L78.6273 21.6061L78.6353 21.6233L78.6441 21.6403L79.5327 21.1816ZM77.2915 21.0718L78.2249 21.4308L78.2293 21.4191L77.2915 21.0718ZM79.8843 31.1353H80.8843V29.164L79.2936 30.3283L79.8843 31.1353ZM77.4014 33.75L76.4527 33.4338L76.4497 33.4427L76.4469 33.4517L77.4014 33.75ZM77.3574 39.7046L76.4399 40.1022L76.4454 40.1149L76.4512 40.1275L77.3574 39.7046ZM79.6206 39.8584L78.7262 39.4112L78.7223 39.419L78.7185 39.4269L79.6206 39.8584ZM77.0718 26.1362H68.7441V28.1362H77.0718V26.1362ZM69.7441 27.1362V25.1807H67.7441V27.1362H69.7441ZM69.7441 25.1807C69.7441 22.9769 69.9981 21.3969 70.4346 20.3617L68.5918 19.5846C68.0029 20.981 67.7441 22.8727 67.7441 25.1807H69.7441ZM70.4323 20.3671C70.8513 19.3895 71.7174 18.4474 73.1686 17.5794L72.142 15.863C70.4584 16.87 69.2298 18.0958 68.594 19.5792L70.4323 20.3671ZM73.1686 17.5794C74.5335 16.763 76.3751 16.3149 78.7637 16.3149V14.3149C76.1425 14.3149 73.9118 14.8044 72.142 15.863L73.1686 17.5794ZM78.7637 16.3149C81.6765 16.3149 83.6983 16.8387 84.9787 17.7374L86.1277 16.1005C84.3613 14.8605 81.8567 14.3149 78.7637 14.3149V16.3149ZM84.984 17.7411C86.333 18.675 87.0703 19.7696 87.3189 21.0244L89.2807 20.6357C88.9141 18.7851 87.8203 17.2722 86.1224 16.0968L84.984 17.7411ZM87.3192 21.0262C87.6041 22.4504 87.7612 25.5281 87.7612 30.3662H89.7612C89.7612 25.5656 89.6108 22.2859 89.2804 20.634L87.3192 21.0262ZM87.7612 30.3662V45H89.7612V30.3662H87.7612ZM88.7612 44H80.126V46H88.7612V44ZM81.126 45V42.4072H79.126V45H81.126ZM79.2392 41.9451C78.7677 42.8497 78.1814 43.4863 77.4957 43.9047L78.5375 45.6119C79.5803 44.9757 80.4002 44.0448 81.0128 42.8694L79.2392 41.9451ZM77.4999 43.9021C76.8343 44.3038 76.0027 44.5273 74.9624 44.5273V46.5273C76.2952 46.5273 77.4997 46.2382 78.5333 45.6145L77.4999 43.9021ZM74.9624 44.5273C73.6077 44.5273 72.3715 44.154 71.2303 43.3975L70.1252 45.0644C71.5914 46.0364 73.2116 46.5273 74.9624 46.5273V44.5273ZM71.2411 43.4047C70.3945 42.8275 69.7441 41.3884 69.7441 38.4961H67.7441C67.7441 41.4924 68.3829 43.8766 70.1144 45.0572L71.2411 43.4047ZM69.7441 38.4961V36.1011H67.7441V38.4961H69.7441ZM69.7441 36.1011C69.7441 33.942 70.1016 32.7907 70.5312 32.2971L69.0226 30.9841C68.0752 32.0725 67.7441 33.8949 67.7441 36.1011H69.7441ZM70.5312 32.2971C70.7558 32.0391 71.227 31.6792 72.0488 31.2348C72.8515 30.8008 73.917 30.3236 75.2575 29.8046L74.5355 27.9395C73.1514 28.4753 72.0013 28.9868 71.0974 29.4756C70.2127 29.9541 69.4864 30.4511 69.0226 30.9841L70.5312 32.2971ZM75.2614 29.8031C76.728 29.2283 77.8773 28.7384 78.695 28.3353C79.1019 28.1347 79.449 27.9447 79.7195 27.7663C79.8547 27.6771 79.9875 27.5798 80.1048 27.4744C80.2124 27.3777 80.3592 27.2283 80.4644 27.0253L78.6889 26.1046C78.7429 26.0005 78.7961 25.9616 78.7677 25.9871C78.749 26.0039 78.7035 26.0406 78.6181 26.0969C78.4473 26.2096 78.1838 26.3575 77.8107 26.5414C77.0683 26.9074 75.98 27.3733 74.5316 27.941L75.2614 29.8031ZM80.4644 27.0253C80.6486 26.67 80.7434 26.2301 80.7994 25.7903C80.8579 25.3306 80.8843 24.7795 80.8843 24.1479H78.8843C78.8843 24.7322 78.8594 25.1919 78.8154 25.5378C78.7688 25.9037 78.7098 26.0644 78.6889 26.1046L80.4644 27.0253ZM80.8843 24.1479C80.8843 23.3651 80.8544 22.6942 80.7894 22.1461C80.7275 21.6236 80.6238 21.1153 80.4213 20.723L78.6441 21.6403C78.676 21.7021 78.7481 21.9152 78.8033 22.3815C78.8556 22.8221 78.8843 23.4073 78.8843 24.1479H80.8843ZM80.4382 20.7572C80.2612 20.3798 79.9953 20.0432 79.6193 19.8072C79.2444 19.572 78.8266 19.4785 78.4121 19.4785V21.4785C78.4701 21.4785 78.5067 21.485 78.527 21.4902C78.5463 21.4953 78.5541 21.5 78.5563 21.5014C78.5584 21.5027 78.5644 21.5066 78.5748 21.5189C78.5859 21.532 78.6049 21.5585 78.6273 21.6061L80.4382 20.7572ZM78.4121 19.4785C78.0131 19.4785 77.5924 19.5425 77.2136 19.743C76.8101 19.9567 76.5126 20.2957 76.3538 20.7245L78.2293 21.4191C78.2265 21.4266 78.2168 21.4476 78.1959 21.4714C78.1751 21.4951 78.1559 21.5072 78.1494 21.5106C78.1449 21.513 78.1592 21.5045 78.2032 21.4956C78.2476 21.4866 78.3155 21.4785 78.4121 21.4785V19.4785ZM76.3582 20.7128C76.2258 21.057 76.1657 21.5393 76.1294 22.0372C76.0902 22.5732 76.0718 23.2576 76.0718 24.082H78.0718C78.0718 23.2805 78.0899 22.6502 78.1241 22.1828C78.1411 21.9491 78.1614 21.767 78.183 21.6309C78.2061 21.4854 78.225 21.4305 78.2248 21.4308L76.3582 20.7128ZM76.0718 24.082V27.1362H78.0718V24.082H76.0718ZM79.2936 30.3283C78.555 30.869 77.9419 31.3863 77.4727 31.8804C77.0134 32.3641 76.6363 32.883 76.4527 33.4338L78.3501 34.0662C78.4008 33.9138 78.5547 33.6455 78.923 33.2576C79.2815 32.8801 79.7927 32.4415 80.4749 31.9422L79.2936 30.3283ZM76.4469 33.4517C76.1821 34.2991 76.0718 35.4292 76.0718 36.7822H78.0718C78.0718 35.4986 78.1812 34.6071 78.3558 34.0483L76.4469 33.4517ZM76.0718 36.7822C76.0718 37.5538 76.096 38.21 76.1479 38.7417C76.1974 39.2477 76.2794 39.7318 76.4399 40.1022L78.275 39.307C78.245 39.2379 78.1842 39.0152 78.1384 38.5471C78.0952 38.1047 78.0718 37.5195 78.0718 36.7822H76.0718ZM76.4512 40.1275C76.6361 40.5237 76.9267 40.8534 77.3222 41.0731C77.706 41.2864 78.1298 41.3638 78.5439 41.3638V39.3638C78.3721 39.3638 78.3052 39.3313 78.2935 39.3248C78.2881 39.3218 78.287 39.3205 78.2861 39.3195C78.2847 39.318 78.2759 39.3081 78.2636 39.2817L76.4512 40.1275ZM78.5439 41.3638C79.2725 41.3638 80.1199 41.1321 80.5227 40.2899L78.7185 39.4269C78.7276 39.4078 78.7435 39.384 78.7657 39.3624C78.7874 39.3413 78.8043 39.3328 78.8057 39.3322C78.8058 39.3321 78.8014 39.3342 78.7911 39.3374C78.7809 39.3406 78.7653 39.3447 78.7434 39.3487C78.6989 39.3569 78.6338 39.3638 78.5439 39.3638V41.3638ZM80.515 40.3056C80.6936 39.9484 80.7695 39.467 80.8137 39.0099C80.862 38.5106 80.8843 37.8817 80.8843 37.1338H78.8843C78.8843 37.8508 78.8626 38.4083 78.823 38.8173C78.7794 39.2684 78.7234 39.4168 78.7262 39.4112L80.515 40.3056ZM80.8843 37.1338V31.1353H78.8843V37.1338H80.8843ZM100.692 9.42627H101.692V8.42627H100.692V9.42627ZM100.692 17.4243H99.6924V19.7083L101.371 18.1591L100.692 17.4243ZM103.153 15.8423L102.787 14.9117L102.782 14.9138L103.153 15.8423ZM109.965 16.5015L109.375 17.3093L109.381 17.313L109.965 16.5015ZM111.964 19.248L110.989 19.4679L110.991 19.476L110.993 19.484L111.964 19.248ZM112.338 45V46H113.338V45H112.338ZM103.461 45H102.461V46H103.461V45ZM103.197 21.2036L102.249 21.5198L102.253 21.5327L102.257 21.5454L103.197 21.2036ZM100.692 45V46H101.692V45H100.692ZM91.8154 45H90.8154V46H91.8154V45ZM91.8154 9.42627V8.42627H90.8154V9.42627H91.8154ZM99.6924 9.42627V17.4243H101.692V9.42627H99.6924ZM101.371 18.1591C102.051 17.5309 102.769 17.0729 103.525 16.7708L102.782 14.9138C101.779 15.3148 100.857 15.9115 100.014 16.6895L101.371 18.1591ZM103.519 16.7729C104.29 16.4696 105.118 16.3149 106.01 16.3149V14.3149C104.88 14.3149 103.803 14.5119 102.787 14.9117L103.519 16.7729ZM106.01 16.3149C107.385 16.3149 108.488 16.6621 109.375 17.3093L110.554 15.6937C109.273 14.7588 107.74 14.3149 106.01 14.3149V16.3149ZM109.381 17.313C110.336 18.001 110.821 18.7252 110.989 19.4679L112.94 19.0282C112.639 17.6908 111.791 16.584 110.549 15.6899L109.381 17.313ZM110.993 19.484C111.21 20.3783 111.338 22.1482 111.338 24.895H113.338C113.338 22.1633 113.217 20.1686 112.936 19.012L110.993 19.484ZM111.338 24.895V45H113.338V24.895H111.338ZM112.338 44H103.461V46H112.338V44ZM104.461 45V24.4775H102.461V45H104.461ZM104.461 24.4775C104.461 23.614 104.439 22.887 104.392 22.3044C104.347 21.7464 104.274 21.2382 104.137 20.8619L102.257 21.5454C102.296 21.6524 102.355 21.9316 102.398 22.4649C102.439 22.9736 102.461 23.6419 102.461 24.4775H104.461ZM104.146 20.8874C104.005 20.4632 103.744 20.082 103.34 19.8202C102.947 19.5662 102.502 19.4785 102.077 19.4785V21.4785C102.237 21.4785 102.272 21.5116 102.253 21.4994C102.244 21.4934 102.236 21.4851 102.232 21.4799C102.229 21.4759 102.237 21.4855 102.249 21.5198L104.146 20.8874ZM102.077 19.4785C101.65 19.4785 101.216 19.578 100.833 19.8384C100.449 20.0996 100.197 20.4682 100.044 20.8684L101.912 21.5827C101.932 21.5319 101.948 21.5062 101.956 21.4962C101.962 21.4875 101.963 21.4887 101.958 21.4922C101.941 21.5035 101.961 21.4785 102.077 21.4785V19.4785ZM100.044 20.8684C99.9 21.2449 99.8186 21.7239 99.7684 22.2448C99.7166 22.7824 99.6924 23.434 99.6924 24.1919H101.692C101.692 23.4703 101.716 22.8878 101.759 22.4366C101.804 21.9688 101.866 21.7043 101.912 21.5827L100.044 20.8684ZM99.6924 24.1919V45H101.692V24.1919H99.6924ZM100.692 44H91.8154V46H100.692V44ZM92.8154 45V9.42627H90.8154V45H92.8154ZM91.8154 10.4263H100.692V8.42627H91.8154V10.4263Z" fill="#102821" mask="url(#path-3-outside-1_1238_52)"/>
<mask id="path-5-outside-2_1238_52" maskUnits="userSpaceOnUse" x="115" y="35" width="12" height="11" fill="black">
<rect fill="white" x="115" y="35" width="12" height="11"/>
<path d="M124.57 38.39C125.53 39.86 124.96 41.42 124.12 42.53C123.43 43.43 122.56 44.12 121.36 44.3C121.09 44.33 120.85 44.3 120.61 44.3C119.26 44.45 117.28 43.4 116.92 41.93C116.56 40.55 116.92 39.41 117.79 38.36C118.57 37.46 119.47 36.77 120.67 36.68C121.9 36.56 123.73 37.1 124.57 38.39Z"/>
</mask>
<path d="M124.57 38.39C125.53 39.86 124.96 41.42 124.12 42.53C123.43 43.43 122.56 44.12 121.36 44.3C121.09 44.33 120.85 44.3 120.61 44.3C119.26 44.45 117.28 43.4 116.92 41.93C116.56 40.55 116.92 39.41 117.79 38.36C118.57 37.46 119.47 36.77 120.67 36.68C121.9 36.56 123.73 37.1 124.57 38.39Z" fill="white"/>
<path d="M124.57 38.39L123.732 38.9357L123.733 38.9368L124.57 38.39ZM124.12 42.53L124.914 43.1384L124.917 43.1334L124.12 42.53ZM121.36 44.3L121.47 45.2939L121.489 45.2918L121.508 45.2889L121.36 44.3ZM120.61 44.3V43.3H120.555L120.5 43.3061L120.61 44.3ZM116.92 41.93L117.891 41.6921L117.89 41.6848L117.888 41.6776L116.92 41.93ZM117.79 38.36L117.034 37.7051L117.027 37.7134L117.02 37.722L117.79 38.36ZM120.67 36.68L120.745 37.6772L120.756 37.6764L120.767 37.6753L120.67 36.68ZM123.733 38.9368C124.348 39.8793 124.062 40.9499 123.323 41.9266L124.917 43.1334C125.858 41.8901 126.712 39.8407 125.407 37.8432L123.733 38.9368ZM123.326 41.9216C122.735 42.6931 122.073 43.1818 121.212 43.3111L121.508 45.2889C123.047 45.0582 124.125 44.1669 124.914 43.1384L123.326 41.9216ZM121.25 43.3061C121.182 43.3136 121.108 43.3149 121.004 43.3117C120.926 43.3093 120.747 43.3 120.61 43.3V45.3C120.713 45.3 120.774 45.3057 120.943 45.3108C121.087 45.3151 121.268 45.3164 121.47 45.2939L121.25 43.3061ZM120.5 43.3061C120.097 43.3508 119.484 43.2121 118.91 42.8662C118.335 42.5193 117.986 42.0785 117.891 41.6921L115.949 42.1679C116.214 43.2515 117.035 44.0707 117.877 44.5788C118.721 45.0879 119.773 45.3992 120.72 45.2939L120.5 43.3061ZM117.888 41.6776C117.622 40.6607 117.859 39.8446 118.56 38.998L117.02 37.722C115.981 38.9754 115.498 40.4393 115.952 42.1824L117.888 41.6776ZM118.546 39.0149C119.252 38.2001 119.928 37.7385 120.745 37.6772L120.595 35.6828C119.012 35.8015 117.888 36.7199 117.034 37.7051L118.546 39.0149ZM120.767 37.6753C121.21 37.6321 121.817 37.7078 122.401 37.9371C122.984 38.166 123.457 38.5127 123.732 38.9357L125.408 37.8443C124.843 36.9773 123.981 36.409 123.132 36.0754C122.283 35.7422 121.36 35.6079 120.573 35.6847L120.767 37.6753Z" fill="#102821" mask="url(#path-5-outside-2_1238_52)"/>
</g>
<defs>
<clipPath id="clip0_1238_52">
<rect width="133" height="53" fill="white"/>
</clipPath>
</defs>
</svg>
